<?xml version="1.0" standalone="no"?>
<!DOCTYPE svg PUBLIC "-//W3C//DTD SVG 1.1//EN" "http://www.w3.org/Graphics/SVG/1.1/DTD/svg11.dtd" >
<svg xmlns="http://www.w3.org/2000/svg" xmlns:xlink="http://www.w3.org/1999/xlink" version="1.1">
<metadata>
Created by FontForge 20150824 at Fri Mar 18 06:57:37 2016
 By Everything Fonts
Copyright (c) 1992, 2002 Adobe Systems Incorporated.  All Rights Reserved. (c) Copyright 1992, 2002 The Monotype Corporation plc. All Rights Reserved.
</metadata>
<defs>
<font id="GrotesqueMTStd" horiz-adv-x="594" >
  <font-face 
    font-family="GrotesqueMTStd"
    font-weight="400"
    font-stretch="normal"
    units-per-em="1000"
    panose-1="2 11 5 4 2 2 2 2 2 4"
    ascent="721"
    descent="-279"
    x-height="494"
    cap-height="721"
    bbox="-157 -250 1025 931"
    underline-thickness="50"
    underline-position="-150"
    unicode-range="U+0020-FB02"
  />
<missing-glyph horiz-adv-x="500" 
d="M0 0v700h500v-700h-500zM250 395l170 255h-340zM280 350l170 -255v510zM80 50h340l-170 255zM50 605v-510l170 255z" />
    <glyph glyph-name="f_i" unicode="fi" 
d="M40 494h79q1 83 10 120t35 65q52 53 153 53q49 0 85.5 -12t55.5 -27t32.5 -39.5t16.5 -38t7 -34.5h-84q-13 86 -108 86q-61 0 -90 -30t-29 -95v-48h122v-70h-122v-424h-84v424h-79v70zM430 0v494h84v-494h-84z" />
    <glyph glyph-name="f_l" unicode="fl" 
d="M402 721h111v-721h-84v573q0 43 -28.5 68.5t-77.5 25.5q-119 0 -119 -106v-67h122v-70h-122v-424h-84v424h-79v70h79v38q0 106 47 153t153 47q34 0 51 -5q28 -6 31 -6z" />
    <glyph glyph-name=".notdef" horiz-adv-x="500" 
d="M0 0v700h500v-700h-500zM250 395l170 255h-340zM280 350l170 -255v510zM80 50h340l-170 255zM50 605v-510l170 255z" />
    <glyph glyph-name=".null" horiz-adv-x="0" 
 />
    <glyph glyph-name="nonmarkingreturn" horiz-adv-x="333" 
 />
    <glyph glyph-name="space" unicode=" " horiz-adv-x="240" 
 />
    <glyph glyph-name="exclam" unicode="!" horiz-adv-x="271" 
d="M100 207l-12 517h98l-17 -517h-69zM86 0v126h97v-126h-97z" />
    <glyph glyph-name="quotedbl" unicode="&#x22;" horiz-adv-x="479" 
d="M80 601v120h98v-120l-30 -139h-38zM301 601v120h98v-120l-30 -139h-38z" />
    <glyph glyph-name="numbersign" unicode="#" horiz-adv-x="668" 
d="M42 412v70h156l42 194h70l-42 -194h196l41 194h70l-42 -194h93v-70h-106l-36 -171h142v-70h-155l-41 -193h-71l42 193h-197l-40 -193h-70l40 193h-92v70h107l35 171h-142zM450 412h-196l-35 -170h196z" />
    <glyph glyph-name="dollar" unicode="$" 
d="M270 417v189q-46 -5 -72.5 -26.5t-26.5 -55.5q0 -33 21 -56t78 -51zM337 287v-229q52 7 81.5 35.5t29.5 71.5q0 37 -24 63.5t-87 58.5zM270 681v42h67v-42q89 -15 135.5 -55t54.5 -131h-89q-6 50 -28 74.5t-73 34.5v-215q44 -21 70.5 -35.5t61.5 -41.5t52.5 -61.5
t17.5 -77.5q0 -54 -28.5 -97.5t-79.5 -68.5q-34 -16 -94 -24v-97h-67v98q-59 7 -95 22t-66 46q-25 27 -36 53.5t-18 77.5h94q11 -107 120 -123v256q-35 14 -53.5 23t-47.5 27t-44.5 35.5t-27.5 45t-12 59.5q0 109 101 155q31 14 85 20z" />
    <glyph glyph-name="percent" unicode="%" horiz-adv-x="854" 
d="M644 339q59 0 99 -55.5t40 -137.5q0 -80 -40 -133.5t-99 -53.5q-65 0 -104 52.5t-39 140.5q0 84 39.5 135.5t103.5 51.5zM643 282q-32 0 -49.5 -31.5t-17.5 -89.5q0 -146 65 -146q31 0 48.5 34.5t17.5 97.5q0 64 -17 99.5t-47 35.5zM213 739q62 0 101 -53t39 -137
q0 -83 -39 -136.5t-100 -53.5q-64 0 -103.5 52t-39.5 138q0 85 39.5 137.5t102.5 52.5zM213 682q-31 0 -48 -32.5t-17 -92.5q0 -141 64 -141t64 131q0 135 -63 135zM214 -42l376 783h50l-374 -783h-52z" />
    <glyph glyph-name="ampersand" unicode="&#x26;" horiz-adv-x="646" 
d="M332 618q-23 0 -38 -17t-15 -45q0 -38 34 -110q68 44 68 104q0 29 -14 48.5t-35 19.5zM136 193q0 -54 41.5 -93t99.5 -39q63 0 127 60q-57 82 -108 177l-27 50q-32 -18 -49 -29t-40 -30.5t-33.5 -43t-10.5 -52.5zM623 73l8 -78q-32 -7 -49 -7q-38 0 -67.5 17t-67.5 61
q-80 -80 -184 -80q-85 0 -146 60.5t-61 145.5q0 37 14 70.5t32 54.5t48 42t46.5 30t44.5 22q-32 80 -32 127q0 67 34 109t89 42q50 0 84 -38.5t34 -96.5q0 -57 -43 -109q-26 -30 -68 -55q68 -127 117 -200q23 39 33 68t17 77l63 -40q-17 -96 -68 -164q52 -61 94 -61
q10 0 28 3z" />
    <glyph glyph-name="quotesingle" unicode="'" horiz-adv-x="271" 
d="M87 601v120h98v-120l-30 -139h-38z" />
    <glyph glyph-name="parenleft" unicode="(" horiz-adv-x="375" 
d="M301 -101v-91q-70 45 -108 91q-119 145 -119 384q0 135 53 266q49 121 175 197v-90q-34 -33 -50 -55.5t-32 -59.5q-52 -116 -52 -266q0 -148 53 -266q16 -36 31.5 -57t48.5 -53z" />
    <glyph glyph-name="parenright" unicode=")" horiz-adv-x="375" 
d="M74 655v91q70 -45 108 -91q119 -145 119 -384q0 -135 -53 -266q-49 -121 -175 -197v90q34 33 50 55.5t32 59.5q52 116 52 266q0 148 -53 266q-16 36 -31.5 57t-48.5 53z" />
    <glyph glyph-name="asterisk" unicode="*" horiz-adv-x="479" 
d="M115 697l70 42l53 -144l55 143l70 -40l-104 -118l161 28v-82l-161 29l105 -126l-72 -40l-55 151l-53 -153l-71 42l102 126l-155 -28v80l155 -26z" />
    <glyph glyph-name="plus" unicode="+" horiz-adv-x="667" 
d="M66 287v77h228v229h77v-229h230v-77h-230v-228h-77v228h-228z" />
    <glyph glyph-name="comma" unicode="," horiz-adv-x="271" 
d="M88 0v128h98v-133q0 -104 -81 -155l-19 39q41 47 39 121h-37z" />
    <glyph glyph-name="hyphen" unicode="-" horiz-adv-x="375" 
d="M50 207v82h276v-82h-276z" />
    <glyph glyph-name="period" unicode="." horiz-adv-x="271" 
d="M87 0v128h98v-128h-98z" />
    <glyph glyph-name="slash" unicode="/" horiz-adv-x="323" 
d="M35 -170l186 900h68l-186 -900h-68z" />
    <glyph glyph-name="zero" unicode="0" horiz-adv-x="479" 
d="M244 620q-59 0 -92 -72.5t-33 -202.5q0 -137 32 -213.5t88 -76.5q121 0 121 303q0 124 -30.5 193t-85.5 69zM245 691q24 0 48.5 -7t54.5 -29.5t52.5 -58.5t38 -99.5t15.5 -145.5q0 -73 -10.5 -132.5t-25.5 -97t-37 -65t-41 -41t-41.5 -21t-34 -9t-23.5 -1.5
q-14 0 -29 2.5t-37 11.5t-41.5 24t-39.5 43t-34.5 65t-24 93.5t-9.5 125.5q0 149 56.5 245.5t162.5 96.5z" />
    <glyph glyph-name="one" unicode="1" horiz-adv-x="479" 
d="M89 457v82q83 39 171 151h60v-690h-90v546q-75 -61 -141 -89z" />
    <glyph glyph-name="two" unicode="2" horiz-adv-x="479" 
d="M155 402l-67 -37q-42 72 -42 135q0 86 56 139t145 53t146.5 -56t57.5 -143q0 -48 -13 -86.5t-42 -71t-51 -50t-65 -48.5q-80 -56 -105.5 -82t-50.5 -69h319v-86h-415q2 41 12.5 75.5t23 58t39 51.5t45.5 44t58 48q58 47 83 70.5t45.5 60t20.5 78.5q0 62 -30 97t-84 35
q-52 0 -83.5 -32.5t-31.5 -86.5q0 -40 29 -97z" />
    <glyph glyph-name="three" unicode="3" horiz-adv-x="479" 
d="M140 512l-75 -33q-12 39 -12 59q0 65 57.5 110t139.5 45q77 0 129 -50.5t52 -124.5q0 -35 -11 -62t-31.5 -45t-35 -27t-35.5 -18q134 -43 134 -174q0 -89 -63 -147.5t-160 -58.5q-87 0 -144 49.5t-57 125.5q0 29 18 89l73 -32q-9 -30 -9 -48q0 -52 33 -82.5t89 -30.5
q54 0 87 36.5t33 96.5q0 41 -15 70t-33.5 43t-48.5 21.5t-47 8.5t-42 1v71q21 -3 50 0t55.5 10t45.5 31.5t19 63.5q0 52 -28 80.5t-79 28.5q-38 0 -66.5 -21.5t-28.5 -51.5q0 -13 6 -34z" />
    <glyph glyph-name="four" unicode="4" horiz-adv-x="479" 
d="M277 234v303l-187 -303h187zM32 274l257 417h76v-457h82v-75h-82v-159h-88v159h-245v115z" />
    <glyph glyph-name="five" unicode="5" horiz-adv-x="479" 
d="M57 330l27 348h321v-86h-255l-13 -173q57 46 121 46q82 0 133.5 -63t51.5 -163q0 -115 -59 -185.5t-156 -70.5q-84 0 -134 49.5t-58 138.5l79 26q2 -21 4 -34t9.5 -35t18.5 -35t31.5 -23t47.5 -10q57 0 90 46t33 125q0 74 -30 115.5t-84 41.5q-36 0 -60.5 -19t-46.5 -64z
" />
    <glyph glyph-name="six" unicode="6" horiz-adv-x="479" 
d="M245 55q50 0 79.5 45t29.5 121q0 78 -27 121.5t-74 43.5q-53 0 -85.5 -43t-32.5 -112q0 -81 29.5 -128.5t80.5 -47.5zM434 544l-83 -24q-27 94 -103 94q-37 0 -62 -20t-36.5 -58t-15.5 -70t-6 -79q57 71 140 71q79 0 130 -62t51 -160q0 -118 -53.5 -185.5t-147.5 -67.5
q-77 0 -132 55q-47 46 -66 109.5t-19 175.5q0 369 225 369q39 0 69.5 -11.5t47.5 -25t31 -38t18.5 -37.5t11.5 -36z" />
    <glyph glyph-name="seven" unicode="7" horiz-adv-x="479" 
d="M38 604v79h404v-74q-41 -71 -72 -149q-44 -111 -69 -201.5t-31 -136t-13 -122.5h-95q12 93 22.5 143t32.5 118q54 175 143 343h-322z" />
    <glyph glyph-name="eight" unicode="8" horiz-adv-x="479" 
d="M242 622q-45 0 -75.5 -32t-30.5 -81q0 -47 29.5 -79.5t72.5 -32.5q47 0 77 31.5t30 81.5q0 49 -29 80.5t-74 31.5zM238 323q-50 0 -84 -38t-34 -93q0 -64 32.5 -101.5t87.5 -37.5t88 37.5t33 99.5q0 59 -34 96t-89 37zM304 361q59 -14 88 -37q65 -51 65 -148
q0 -84 -62.5 -137.5t-160.5 -53.5q-92 0 -151.5 55.5t-59.5 140.5q0 89 68 142q30 24 86 38q-24 10 -39.5 18.5t-41 27.5t-39 48t-13.5 66q0 74 57 123t143 49q83 0 139.5 -49t56.5 -122q0 -36 -14.5 -65.5t-40.5 -49t-42 -28t-39 -18.5z" />
    <glyph glyph-name="nine" unicode="9" horiz-adv-x="479" 
d="M232 620q-48 0 -77 -44t-29 -116q0 -81 28.5 -126t79.5 -45q49 0 79.5 44.5t30.5 116.5q0 73 -32 121.5t-80 48.5zM39 128l87 35q16 -55 38 -76t63 -21q25 0 45 10.5t32 30.5t20 40t12 48t5.5 44t2.5 39q-68 -63 -138 -63q-77 0 -127 67t-50 173q0 103 58 169.5t147 66.5
q25 0 50 -7t56 -28.5t54.5 -56.5t39.5 -98.5t16 -145.5q0 -118 -21.5 -193t-68.5 -123q-54 -55 -145 -55q-36 0 -65.5 11t-47 25.5t-32 37.5t-20 36.5t-11.5 33.5z" />
    <glyph glyph-name="colon" unicode=":" horiz-adv-x="271" 
d="M86 367v128h99v-128h-99zM86 0v127h99v-127h-99z" />
    <glyph glyph-name="semicolon" unicode=";" horiz-adv-x="271" 
d="M88 369v128h98v-128h-98zM88 0v128h99v-111q0 -88 -45 -144q-12 -15 -37 -33l-20 39q24 28 32 52t9 69h-38z" />
    <glyph glyph-name="less" unicode="&#x3c;" horiz-adv-x="667" 
d="M600 150v-83l-534 224v70l534 224v-83l-430 -176z" />
    <glyph glyph-name="equal" unicode="=" horiz-adv-x="667" 
d="M66 404v77h535v-77h-535zM66 173v77h535v-77h-535z" />
    <glyph glyph-name="greater" unicode="&#x3e;" horiz-adv-x="667" 
d="M66 501v84l534 -225v-69l-534 -224v83l431 175z" />
    <glyph glyph-name="question" unicode="?" horiz-adv-x="531" 
d="M146 502l-81 43q4 55 16.5 87.5t40.5 60.5q55 55 148 55q83 0 140 -56.5t57 -138.5q0 -55 -29 -104t-94 -105q-37 -32 -47.5 -54.5t-10.5 -69.5h-78q1 77 17 109.5t60 73.5t65.5 73.5t21.5 76.5q0 47 -32 80t-78 33q-112 0 -116 -164zM197 0v125h98v-125h-98z" />
    <glyph glyph-name="at" unicode="@" horiz-adv-x="1015" 
d="M881 9h89q-8 -15 -16.5 -29t-45.5 -52.5t-80.5 -65.5t-121 -49.5t-167.5 -22.5q-231 0 -362.5 117t-131.5 322q0 62 14.5 126.5t50.5 132.5t89 120.5t138.5 86.5t190.5 34q104 0 187 -35t132 -91t74 -119.5t25 -127.5q0 -77 -28 -146t-71 -114t-94 -71.5t-98 -26.5
q-50 0 -71.5 18t-25.5 64q-70 -81 -148 -81q-77 0 -128 62.5t-51 158.5q0 70 33 141t92.5 119.5t127.5 48.5q92 0 148 -90l16 76h88l-78 -362q-7 -33 -7 -42q0 -13 10.5 -22.5t24.5 -9.5q20 0 50.5 19t61.5 52t53 87t22 113q0 133 -99.5 220.5t-250.5 87.5
q-175 0 -290.5 -119.5t-115.5 -301.5q0 -178 111.5 -276.5t311.5 -98.5q128 0 213.5 43t127.5 104zM321 212q0 -63 30 -102t78 -39q62 0 118.5 73.5t56.5 170.5q0 65 -31 103.5t-83 38.5q-65 0 -117 -75.5t-52 -169.5z" />
    <glyph glyph-name="A" unicode="A" horiz-adv-x="854" 
d="M571 263l-143 329l-144 -329h287zM68 0l316 721h88l315 -721h-100l-77 174h-364l-77 -174h-101z" />
    <glyph glyph-name="B" unicode="B" horiz-adv-x="698" 
d="M371 638h-171v-209h156q152 0 152 109q0 100 -137 100zM374 344h-174v-260h166q81 0 125 32.5t44 92.5q0 66 -41 100.5t-120 34.5zM101 0v721h287q100 0 162.5 -46.5t62.5 -121.5q0 -117 -147 -166q52 -13 82 -29.5t53 -44.5q37 -44 37 -109q0 -91 -61 -147.5t-160 -56.5
h-316z" />
    <glyph glyph-name="C" unicode="C" horiz-adv-x="750" 
d="M614 204l68 -71q-13 -22 -22.5 -36.5t-34 -40t-51 -41t-70.5 -28t-95 -12.5q-65 0 -118.5 17t-88 44t-60.5 63.5t-39.5 70t-21.5 70.5t-10 59t-2 40q0 178 93.5 288.5t244.5 110.5q57 0 105 -16t76 -37.5t49.5 -49t29.5 -45.5t12 -32l-76 -65q-8 23 -14 37t-22.5 39.5
t-34.5 40t-49.5 26.5t-69.5 12q-107 0 -172.5 -80.5t-65.5 -210.5q0 -77 19.5 -134.5t46 -86.5t62 -47t59 -22t45.5 -4q89 0 154 63q28 27 53 78z" />
    <glyph glyph-name="D" unicode="D" horiz-adv-x="802" 
d="M389 633h-171v-544h179q104 0 162.5 71t58.5 196q0 152 -78 225q-53 52 -151 52zM119 0v721h269q147 0 227 -80q108 -105 108 -280q0 -168 -86 -264.5t-237 -96.5h-281z" />
    <glyph glyph-name="E" unicode="E" 
d="M91 0v721h449l-27 -85h-324v-221h297v-86h-297v-243h325l29 -86h-452z" />
    <glyph glyph-name="F" unicode="F" 
d="M102 0v721h450l-39 -89h-312v-221h267v-89h-267v-322h-99z" />
    <glyph glyph-name="G" unicode="G" horiz-adv-x="802" 
d="M719 357v-237q-37 -49 -67 -71q-96 -74 -218 -74q-159 0 -254.5 98t-95.5 262q0 187 96 295.5t262 108.5q79 0 144 -36.5t105 -92.5l-58 -80q-75 119 -196 119q-116 0 -182 -81.5t-66 -226.5q0 -131 65.5 -204.5t181.5 -73.5q48 0 87.5 16t57.5 32t39 40v117h-281v89h380
z" />
    <glyph glyph-name="H" unicode="H" horiz-adv-x="750" 
d="M97 0v721h99v-306h359v306h99v-721h-99v327h-359v-327h-99z" />
    <glyph glyph-name="I" unicode="I" horiz-adv-x="323" 
d="M112 0v721h99v-721h-99z" />
    <glyph glyph-name="J" unicode="J" horiz-adv-x="593" 
d="M377 197v524h99v-540q0 -95 -55 -150t-150 -55q-52 0 -91.5 17t-60.5 40.5t-33.5 54t-16 51t-3.5 36.5q0 35 3 74l97 62q-11 -75 -11 -108q0 -65 30.5 -101.5t84.5 -36.5q52 0 79.5 34t27.5 98z" />
    <glyph glyph-name="K" unicode="K" horiz-adv-x="698" 
d="M103 0v721h99v-330l319 330h128l-255 -262l262 -459h-108l-222 389l-124 -129v-260h-99z" />
    <glyph glyph-name="L" unicode="L" 
d="M100 0v721h99v-635h345v-86h-444z" />
    <glyph glyph-name="M" unicode="M" horiz-adv-x="854" 
d="M428 134l179 587h153v-721h-89v641l-195 -641h-97l-196 641v-641h-89v721h154z" />
    <glyph glyph-name="N" unicode="N" horiz-adv-x="750" 
d="M100 0v721h133l318 -562v562h99v-721h-118l-334 588v-588h-98z" />
    <glyph glyph-name="O" unicode="O" horiz-adv-x="802" 
d="M404 650q-111 0 -175.5 -79.5t-64.5 -216.5q0 -129 66 -210t171 -81q109 0 173.5 82t64.5 219q0 130 -64 208t-171 78zM59 361q0 174 95 275.5t250 101.5q152 0 246 -103.5t94 -271.5q0 -94 -26.5 -166.5t-64.5 -112.5t-88 -66t-89.5 -34t-75.5 -8q-157 0 -249 103.5
t-92 281.5z" />
    <glyph glyph-name="P" unicode="P" horiz-adv-x="698" 
d="M364 634h-161v-256h105q33 0 52.5 1t48 4.5t45.5 11.5t34.5 21.5t25.5 35.5t8 52q0 130 -158 130zM105 0v721h296q103 0 167.5 -60.5t64.5 -156.5q0 -97 -68 -154.5t-183 -57.5h-178v-292h-99z" />
    <glyph glyph-name="Q" unicode="Q" horiz-adv-x="802" 
d="M322 157l85 24q39 -31 85 -101q20 9 40 24.5t46.5 47t43 87t16.5 125.5q0 129 -64.5 207t-171.5 78q-109 0 -173 -79.5t-64 -215.5q0 -45 10 -88.5t34 -91.5t76 -79t125 -33q-41 61 -88 95zM644 -97l-77 -36q-36 20 -56.5 40.5t-56.5 71.5q-3 -1 -24 -3q-6 0 -15 -0.5
t-12 -0.5q-159 0 -251.5 102.5t-92.5 280.5q0 83 21.5 149.5t55.5 108.5t80 70.5t91 40t92 11.5q152 0 248 -104t96 -268q0 -108 -36 -192.5t-102 -131.5q-26 -19 -68 -38q30 -42 54 -64.5t53 -36.5z" />
    <glyph glyph-name="R" unicode="R" horiz-adv-x="698" 
d="M370 637h-181v-228h189q68 0 103.5 29.5t35.5 85.5q0 113 -147 113zM90 0v721h306q98 0 161.5 -55.5t63.5 -141.5q0 -76 -37.5 -119.5t-114.5 -65.5l180 -339h-106l-174 324h-180v-324h-99z" />
    <glyph glyph-name="S" unicode="S" horiz-adv-x="698" 
d="M64 166l83 69q10 -45 25 -73t43 -50q58 -49 152 -49q67 0 114 39t47 95q0 53 -41 83.5t-143 54.5q-84 20 -116 34t-78 51q-55 58 -55 127q0 86 73 139.5t191 53.5q54 0 97.5 -13t68 -28.5t46 -41.5t27.5 -38t15 -32l-74 -69q-6 19 -11 31t-19.5 33.5t-32.5 34t-51 23
t-74 10.5q-71 0 -112.5 -27.5t-41.5 -75.5q0 -24 15.5 -42.5t47.5 -32t52.5 -20t58.5 -15.5q42 -10 70.5 -18t68.5 -26.5t64 -41.5t42 -60.5t18 -84.5q0 -104 -78 -167.5t-207 -63.5q-155 0 -236 95q-29 35 -49 96z" />
    <glyph glyph-name="T" unicode="T" horiz-adv-x="698" 
d="M56 634v87h586v-87h-244v-634h-98v634h-244z" />
    <glyph glyph-name="U" unicode="U" horiz-adv-x="750" 
d="M551 247v474h99v-489q0 -120 -61 -182q-72 -74 -215 -74q-128 0 -201 64t-73 177v504h99v-495q0 -77 46.5 -118t134.5 -41q39 0 75.5 12.5t57.5 34.5q38 38 38 133z" />
    <glyph glyph-name="V" unicode="V" horiz-adv-x="750" 
d="M336 0l-273 721h104l213 -569l205 569h102l-260 -721h-91z" />
    <glyph glyph-name="W" unicode="W" horiz-adv-x="1073" 
d="M324 136l161 585h102l158 -586l173 586h96l-211 -721h-106l-161 593l-163 -593h-105l-209 721h97z" />
    <glyph glyph-name="X" unicode="X" horiz-adv-x="698" 
d="M286 370l-237 351h119l175 -261l169 261h113l-224 -348l249 -373h-118l-189 283l-180 -283h-115z" />
    <glyph glyph-name="Y" unicode="Y" horiz-adv-x="698" 
d="M296 292l-255 429h111l193 -325l202 325h111l-263 -425v-296h-99v292z" />
    <glyph glyph-name="Z" unicode="Z" horiz-adv-x="646" 
d="M88 634v87h507v-56l-406 -578h404v-87h-542v55l406 579h-369z" />
    <glyph glyph-name="bracketleft" unicode="[" horiz-adv-x="375" 
d="M61 -166v888h253v-56h-161v-776h161v-56h-253z" />
    <glyph glyph-name="backslash" unicode="\" horiz-adv-x="323" 
d="M220 -170l-186 900h68l186 -900h-68z" />
    <glyph glyph-name="bracketright" unicode="]" horiz-adv-x="375" 
d="M61 667v56h253v-889h-253v56h161v777h-161z" />
    <glyph glyph-name="asciicircum" unicode="^" horiz-adv-x="469" 
d="M234 629l-118 -292h-90l173 391h71l173 -391h-89z" />
    <glyph glyph-name="underscore" unicode="_" horiz-adv-x="500" 
d="M500 -125h-500v50h500v-50z" />
    <glyph glyph-name="grave" unicode="`" horiz-adv-x="333" 
d="M152 683l66 -136h-71l-112 136h117z" />
    <glyph glyph-name="a" unicode="a" horiz-adv-x="531" 
d="M365 218v80q-26 -20 -42.5 -26.5t-59.5 -14.5q-76 -13 -105 -48q-25 -28 -25 -64q0 -41 26 -66.5t67 -25.5q53 0 95 40q25 24 34.5 51.5t9.5 73.5zM133 358l-69 37q9 23 18.5 37.5t31 34.5t60.5 30.5t93 10.5q44 0 76.5 -7t51.5 -20.5t31 -26.5t16.5 -33t5.5 -30.5
t1 -28.5l-1 -242q0 -46 6 -56t33 -11v-57q-36 -11 -53 -11q-23 0 -38 8.5t-21.5 24.5t-8.5 30t-2 34q-21 -26 -37.5 -43t-53 -35.5t-75.5 -18.5q-65 0 -109 46t-44 115q0 62 45 109q50 52 164 63q54 6 71 12.5t40 30.5q-1 45 -20 60t-74 15q-57 0 -89 -18t-49 -60z" />
    <glyph glyph-name="b" unicode="b" 
d="M323 435q-64 -1 -101 -51.5t-37 -136.5q0 -106 50 -155q39 -37 88 -37q55 0 85.5 47.5t30.5 132.5q0 77 -13.5 119t-45.5 64q-28 17 -57 17zM102 0v721h84v-347q12 27 21.5 43.5t28 39.5t46 34.5t62.5 11.5q84 0 133 -69.5t49 -189.5q0 -115 -49.5 -185.5t-129.5 -70.5
q-37 0 -65.5 11.5t-48 34.5t-28.5 38t-21 40v-112h-82z" />
    <glyph glyph-name="c" unicode="c" horiz-adv-x="531" 
d="M414 156l63 -34q-3 -16 -14 -37t-32.5 -44.5t-60.5 -39.5t-88 -16q-101 0 -164.5 74t-63.5 191q0 112 64.5 185t164.5 73q46 0 82.5 -15.5t57 -39.5t31.5 -45t15 -40l-69 -33q-28 102 -120 102q-67 0 -103 -49t-36 -140q0 -105 48 -154q40 -42 98 -42q95 0 127 104z" />
    <glyph glyph-name="d" unicode="d" 
d="M275 436q-120 -5 -120 -201q0 -84 31.5 -131t87.5 -47q53 0 89 38q48 45 48 153q0 53 -14 91.5t-31 56.5t-40 28t-33 11t-18 1zM411 377v344h84v-721h-83v115q-3 -5 -13 -24t-14.5 -26.5t-15.5 -23t-21 -22.5t-24 -16.5t-31.5 -13t-38.5 -3.5q-85 0 -135.5 71t-50.5 190
q0 115 51.5 186.5t133.5 71.5q34 0 61 -11t45.5 -33t28.5 -39t23 -45z" />
    <glyph glyph-name="e" unicode="e" horiz-adv-x="530" 
d="M138 286h257q-2 43 -15.5 74.5t-28.5 46t-35.5 22.5t-29.5 9t-18 1q-59 0 -92.5 -40t-37.5 -113zM408 160l67 -33q-23 -51 -52 -80q-64 -62 -155 -62q-98 0 -158.5 72.5t-60.5 188.5t62 188.5t161 72.5q91 0 150.5 -67t59.5 -168q0 -11 -2 -53h-344q2 -47 16.5 -81
t30.5 -50t38.5 -25t32.5 -10t21 -1q33 0 58.5 11.5t40.5 32.5t21 33t13 31z" />
    <glyph glyph-name="f" unicode="f" horiz-adv-x="323" 
d="M302 423h-98v-423h-84v423h-98v71h98v126q0 64 25 87.5t92 23.5q24 0 63 -5v-70q-21 2 -38 2q-33 0 -45.5 -13.5t-12.5 -49.5v-101h98v-71z" />
    <glyph glyph-name="g" unicode="g" 
d="M281 439q-56 0 -87 -47.5t-31 -133.5q0 -123 45 -169q30 -32 81 -32q61 0 95 46.5t34 129.5q0 95 -37 150.5t-100 55.5zM417 -16v116q-60 -115 -159 -115q-82 0 -133 72t-51 187q0 118 51.5 190t135.5 72q35 0 62 -11t46 -34t27.5 -38t22.5 -43v114h82v-480
q0 -97 -56.5 -150.5t-159.5 -53.5q-85 0 -137.5 35.5t-52.5 91.5q0 17 8 33l78 -34q-1 -29 28 -43t76 -14q62 0 97 28t35 77z" />
    <glyph glyph-name="h" unicode="h" 
d="M100 0v721h84v-312q74 98 159 98q70 0 110.5 -48t40.5 -130v-329h-84v319q0 53 -28.5 84.5t-75.5 31.5q-56 0 -89 -35.5t-33 -94.5v-305h-84z" />
    <glyph glyph-name="i" unicode="i" horiz-adv-x="271" 
d="M94 589v108h84v-108h-84zM94 0v494h84v-494h-84z" />
    <glyph glyph-name="j" unicode="j" horiz-adv-x="271" 
d="M106 589v109h84v-109h-84zM106 -62v556h84v-571q0 -115 -119 -115q-16 0 -41 4v68q46 -4 61 7t15 51z" />
    <glyph glyph-name="k" unicode="k" horiz-adv-x="479" 
d="M76 0v721h84v-437l174 210h93l-136 -156l162 -338h-90l-129 272l-75 -87v-185h-83z" />
    <glyph glyph-name="l" unicode="l" horiz-adv-x="271" 
d="M94 0v721h84v-721h-84z" />
    <glyph glyph-name="m" unicode="m" horiz-adv-x="854" 
d="M761 346v-346h-83v319q0 55 -26 86t-71 31q-112 0 -112 -144v-292h-84v299q0 71 -23.5 104.5t-73.5 33.5q-49 0 -80.5 -36.5t-31.5 -93.5v-307h-83v494h83v-91q58 104 145 104q52 0 84.5 -27t53.5 -81q15 24 25 36.5t29.5 32.5t44.5 29.5t55 9.5q64 0 106 -46t42 -115z
" />
    <glyph glyph-name="n" unicode="n" 
d="M495 343v-343h-84v318q0 55 -27 86t-75 31q-55 0 -90 -34.5t-35 -88.5v-312h-84v494h84v-88q69 101 161 101q67 0 108.5 -45.5t41.5 -118.5z" />
    <glyph glyph-name="o" unicode="o" 
d="M294 436q-65 0 -102 -49.5t-37 -142.5q0 -89 38.5 -138t108.5 -49q64 0 100.5 50.5t36.5 138.5q0 96 -39.5 143t-105.5 47zM295 507q102 0 167 -71.5t65 -183.5q0 -122 -63.5 -194.5t-169.5 -72.5q-101 0 -164 73.5t-63 190.5q0 113 64 185.5t164 72.5z" />
    <glyph glyph-name="p" unicode="p" 
d="M322 57q44 0 72 30q45 45 45 168q0 178 -117 178q-65 0 -101.5 -50.5t-36.5 -139.5q0 -85 37.5 -135.5t100.5 -50.5zM184 494v-116q13 28 23.5 45.5t29.5 38.5t46.5 31.5t63.5 10.5q82 0 131.5 -70t49.5 -185q0 -119 -51 -190.5t-137 -71.5q-32 0 -57 10t-43.5 30.5
t-29 38t-25.5 47.5v-304h-84v685h83z" />
    <glyph glyph-name="q" unicode="q" 
d="M277 58q64 3 100 51t36 131q0 55 -14 95.5t-31 59t-40.5 29.5t-34 12t-20.5 1q-55 0 -86.5 -49.5t-31.5 -134.5q0 -137 64 -178q25 -17 58 -17zM411 -191v309q-46 -132 -155 -132q-82 0 -134.5 72.5t-52.5 185.5q0 119 50 189.5t135 70.5q37 0 65.5 -12.5t47 -36.5
t27 -40t18.5 -40v119h83v-685h-84z" />
    <glyph glyph-name="r" unicode="r" horiz-adv-x="375" 
d="M172 494v-96q13 24 22 37.5t25.5 32.5t37.5 28.5t46 9.5q9 0 35 -2v-87q-28 4 -43 4q-55 0 -89.5 -36t-34.5 -92v-293h-83v494h84z" />
    <glyph glyph-name="s" unicode="s" horiz-adv-x="531" 
d="M60 124l67 40q12 -112 142 -112q51 0 85 21t34 53t-30 51.5t-99 31.5q-41 8 -70 17.5t-57 26.5t-42.5 45t-14.5 65q0 65 53.5 105t138.5 40q50 0 89 -15.5t59 -39t30 -43.5t12 -35l-59 -40q-25 104 -133 104q-47 0 -80 -20t-33 -48q0 -30 30 -48.5t98 -29.5q1 0 6 -1
q183 -28 185 -153q0 -7 -1.5 -18t-12.5 -37.5t-31 -46.5t-64 -36.5t-103 -16.5q-88 0 -143 44q-22 17 -33.5 37t-22.5 59z" />
    <glyph glyph-name="t" unicode="t" horiz-adv-x="323" 
d="M102 623l84 60v-189h105v-70h-105v-299q0 -39 9.5 -53.5t34.5 -14.5q16 0 55 9v-70q-51 -11 -76 -11q-58 0 -82.5 20.5t-24.5 69.5v349h-89v70h89v129z" />
    <glyph glyph-name="u" unicode="u" 
d="M99 146v348h84v-311q0 -125 99 -125q53 0 91 38.5t38 93.5v304h84v-494h-86v87q-66 -103 -155 -103q-70 0 -112.5 44.5t-42.5 117.5z" />
    <glyph glyph-name="v" unicode="v" horiz-adv-x="479" 
d="M198 0l-159 494h81l122 -377l119 377h80l-154 -494h-89z" />
    <glyph glyph-name="w" unicode="w" horiz-adv-x="750" 
d="M186 0l-148 494h82l109 -399l107 399h78l112 -397l106 397h81l-149 -494h-77l-113 400l-109 -400h-79z" />
    <glyph glyph-name="x" unicode="x" horiz-adv-x="479" 
d="M191 260l-145 234h89l100 -160l94 160h87l-136 -233l162 -261h-89l-117 187l-109 -187h-89z" />
    <glyph glyph-name="y" unicode="y" horiz-adv-x="479" 
d="M211 -12l-173 506h79l129 -386l115 386h80l-159 -513l-8 -28q-10 -33 -15.5 -48.5t-17.5 -37.5t-26.5 -32t-39 -18t-57.5 -8q-21 0 -57 4v70q35 -6 55 -6q40 0 56.5 19.5t38.5 91.5z" />
    <glyph glyph-name="z" unicode="z" horiz-adv-x="479" 
d="M83 426v68h326v-51l-246 -376h253v-67h-353v63l237 363h-217z" />
    <glyph glyph-name="braceleft" unicode="{" horiz-adv-x="334" 
d="M26 237v80q29 1 49 12t30 25.5t15 43.5t6 49t1 59q0 42 0.5 61t3.5 50.5t9 46t17 34t27.5 27.5t40.5 14.5t57 6.5h27v-76h-15q-52 0 -68 -19t-16 -82v-71q0 -74 -12.5 -118t-32.5 -64.5t-57 -38.5q57 -24 79.5 -72.5t22.5 -148.5v-71q0 -62 16 -81.5t68 -19.5h15v-76h-27
q-33 0 -57 6.5t-40.5 14.5t-27.5 27.5t-17 34t-9 46t-3.5 50.5t-0.5 61q0 39 -1 59t-6 49t-15 43.5t-30 25.5t-49 12z" />
    <glyph glyph-name="bar" unicode="|" horiz-adv-x="546" 
d="M234 -250v1000h78v-1000h-78z" />
    <glyph glyph-name="braceright" unicode="}" horiz-adv-x="334" 
d="M25 746h27q33 0 57 -6.5t40.5 -14.5t27.5 -27.5t17 -34t9 -46t3.5 -50.5t0.5 -61q0 -39 1 -59t6 -49t15 -43.5t30 -25.5t49 -12v-80q-29 -1 -49 -12t-30 -25.5t-15 -43.5t-6 -49t-1 -59q0 -42 -0.5 -61t-3.5 -50.5t-9 -46t-17 -34t-27.5 -27.5t-40.5 -14.5t-57 -6.5h-27
v76h15q52 0 68 19.5t16 81.5v71q0 100 22.5 148.5t79.5 72.5q-36 17 -55.5 36t-33 64.5t-13.5 120.5v71q0 63 -16 82t-68 19h-15v76z" />
    <glyph glyph-name="asciitilde" unicode="~" horiz-adv-x="656" 
d="M594 421v-83q-75 -64 -143 -64q-30 0 -59 9.5t-91 39.5q-64 30 -95 30q-64 0 -144 -69v82q75 63 148 63q47 0 143 -46q64 -32 99 -32q62 0 142 70z" />
    <glyph glyph-name="uni00A0" unicode="&#xa0;" horiz-adv-x="240" 
 />
    <glyph glyph-name="exclamdown" unicode="&#xa1;" horiz-adv-x="271" 
d="M87 432v127h97v-127h-97zM87 -166l13 517h69l15 -517h-97z" />
    <glyph glyph-name="cent" unicode="&#xa2;" horiz-adv-x="531" 
d="M294 436q-5 1 -14 1q-67 0 -103 -49t-36 -140q0 -94 36 -138zM319 505l66 185h76l-75 -209q36 -21 56.5 -53t26.5 -60l-69 -33q-13 49 -40 74l-125 -346q25 -11 52 -11q95 0 127 104l63 -34q-3 -16 -14 -37t-32.5 -44.5t-60.5 -39.5t-88 -16q-39 0 -71 13l-69 -192h-74
l81 225q-95 72 -95 219q0 112 64.5 185t164.5 73q19 0 36 -3z" />
    <glyph glyph-name="sterling" unicode="&#xa3;" horiz-adv-x="646" 
d="M208 92q-42 26 -70 26q-21 0 -36.5 -13.5t-15.5 -30.5q0 -16 13.5 -27t33.5 -11q40 0 75 56zM69 396h133q-12 68 -12 104q0 85 52.5 140t133.5 55q56 0 98.5 -27t62.5 -76q11 -27 14 -78l-96 10q-2 46 -24 70.5t-60 24.5q-40 0 -63 -29.5t-23 -80.5q0 -34 15 -113h149
v-75h-134q5 -39 5 -63q0 -70 -25 -124q65 -34 96 -45t62 -11q38 0 57.5 20.5t18.5 57.5h83q-4 -86 -46 -129q-44 -44 -121 -44q-48 0 -90 18.5t-97 55.5q-51 -74 -126 -74q-41 0 -69 26.5t-28 65.5q0 43 35 72.5t86 29.5q30 0 79 -16q3 29 3 39q0 52 -20 121h-149v75z" />
    <glyph glyph-name="currency" unicode="&#xa4;" horiz-adv-x="667" 
d="M184 325q0 -62 43.5 -106t105.5 -44t106 44.5t44 106.5t-43.5 105.5t-105.5 43.5t-106 -44t-44 -106zM462 506l64 64l51 -52l-64 -63q43 -56 43 -129t-42 -129l63 -63l-51 -52l-64 64q-57 -43 -129 -43q-73 0 -130 41l-62 -62l-52 52l62 62q-40 56 -40 129t41 130l-63 63
l51 52l64 -63q58 41 130 41q68 0 128 -42z" />
    <glyph glyph-name="yen" unicode="&#xa5;" horiz-adv-x="698" 
d="M296 244v89h-238v62h201l-218 326h110l194 -285l202 285h111l-226 -326h208v-62h-246v-89h246v-62h-246v-182h-98v182h-238v62h238z" />
    <glyph glyph-name="brokenbar" unicode="&#xa6;" horiz-adv-x="546" 
d="M234 -175v350h78v-350h-78zM234 325v350h78v-350h-78z" />
    <glyph glyph-name="section" unicode="&#xa7;" horiz-adv-x="479" 
d="M213 411q-89 -51 -89 -111q0 -18 4 -33t15 -29.5t20.5 -24.5t31.5 -24.5t35 -23t44 -26.5q46 28 64.5 55t18.5 64q0 33 -25 63t-88 69q-19 12 -31 21zM61 -27l86 21q2 -54 26 -83t68 -29q34 0 58 21t24 50q0 28 -25 53.5t-85 59.5q-89 52 -127.5 99.5t-38.5 107.5
q0 36 11 66t33 52.5t34 32.5t33 24q-83 56 -83 137q0 64 48.5 106t120.5 42q154 0 175 -158l-84 -22q-6 112 -92 112q-35 0 -59 -19.5t-24 -47.5t24 -53.5t84 -60.5q90 -53 127.5 -101t37.5 -108q0 -101 -107 -172q43 -36 61.5 -68t18.5 -73q0 -64 -49 -105t-126 -41
q-98 0 -146 84q-16 30 -24 73z" />
    <glyph glyph-name="dieresis" unicode="&#xa8;" horiz-adv-x="333" 
d="M121 556h-91v100h91v-100zM303 556h-91v100h91v-100z" />
    <glyph glyph-name="copyright" unicode="&#xa9;" horiz-adv-x="738" 
d="M539 451l-58 -14q-29 75 -114 75q-56 0 -90.5 -43t-34.5 -113t34 -110t93 -40q43 0 75 25.5t43 68.5l60 -18q-15 -62 -62.5 -98t-114.5 -36q-91 0 -142.5 58t-51.5 159q0 91 54 146t143 55q64 0 107 -30t59 -85zM369 728q152 0 260 -108t108 -260q0 -153 -108 -261
t-260 -108q-153 0 -261 108t-108 261q0 152 108 260t261 108zM369 667q-127 0 -217.5 -90t-90.5 -217q0 -128 90.5 -218t217.5 -90t217 90.5t90 217.5t-90 217t-217 90z" />
    <glyph glyph-name="ordfeminine" unicode="&#xaa;" horiz-adv-x="333" 
d="M228 534v71q-23 -17 -64 -25q-81 -16 -81 -70q0 -26 16 -42t42 -16q34 0 60.5 26t26.5 56zM83 644l-44 24q16 38 45.5 54t81.5 16q115 0 115 -78v-183q0 -15 4.5 -19.5t20.5 -5.5v-37q-24 -7 -34 -7q-22 0 -32 14t-12 47q-29 -34 -52 -47t-55 -13q-41 0 -67.5 29
t-26.5 73t33.5 72t94.5 34q36 5 47.5 9t26.5 19q0 26 -12 37.5t-46 11.5q-37 0 -57 -11.5t-31 -38.5z" />
    <glyph glyph-name="guillemotleft" unicode="&#xab;" horiz-adv-x="479" 
d="M27 277l132 244h87l-132 -243l132 -243h-87zM233 277l132 244h87l-132 -243l132 -243h-87z" />
    <glyph glyph-name="logicalnot" unicode="&#xac;" horiz-adv-x="667" 
d="M66 404v77h535v-315h-77v238h-458z" />
    <glyph glyph-name="uni00AD" unicode="&#xad;" horiz-adv-x="375" 
d="M50 207v82h276v-82h-276z" />
    <glyph glyph-name="registered" unicode="&#xae;" horiz-adv-x="738" 
d="M271 156h-64v396h136q75 0 108 -13q26 -11 44 -37t18 -54q0 -48 -31.5 -79.5t-81.5 -35.5q22 -9 42 -30.5t50 -69.5l48 -77h-78l-35 62q-38 67 -59.5 86.5t-58.5 19.5h-38v-168zM271 498v-119h78q96 0 96 60q0 33 -22.5 46t-78.5 13h-73zM369 728q152 0 260 -108
t108 -260q0 -153 -108 -261t-260 -108q-153 0 -261 108t-108 261q0 152 108 260t261 108zM369 667q-127 0 -217.5 -90t-90.5 -217q0 -128 90.5 -218t217.5 -90t217 90.5t90 217.5t-90 217t-217 90z" />
    <glyph glyph-name="macron" unicode="&#xaf;" horiz-adv-x="333" 
d="M319 563h-305v72h305v-72z" />
    <glyph glyph-name="degree" unicode="&#xb0;" horiz-adv-x="400" 
d="M65 593q0 56 39.5 95.5t95.5 39.5t95.5 -39.5t39.5 -95.5t-39.5 -96t-95.5 -40t-95.5 40t-39.5 96zM118 593q0 -34 24 -58.5t58 -24.5t58 24t24 59q0 34 -24 58t-58 24t-58 -24t-24 -58z" />
    <glyph glyph-name="plusminus" unicode="&#xb1;" horiz-adv-x="667" 
d="M66 370v77h228v230h77v-230h230v-77h-230v-228h-77v228h-228zM66 -24v77h535v-77h-535z" />
    <glyph glyph-name="two.superior" unicode="&#xb2;" horiz-adv-x="323" 
d="M105 606l-47 -25q-15 33 -15 57q0 46 33.5 76.5t84.5 30.5q56 0 90 -29t34 -77q0 -38 -19 -65.5t-72 -66.5q-66 -48 -91 -78h177v-51h-242q5 46 28.5 77.5t64.5 65.5q50 41 66 62.5t21 56.5q-2 27 -17.5 44t-40.5 17q-27 0 -45 -16.5t-18 -40.5q0 -14 8 -38z" />
    <glyph glyph-name="three.superior" unicode="&#xb3;" horiz-adv-x="323" 
d="M107 655l-51 -19q-5 25 -5 35q0 32 30 53.5t76 21.5q52 0 84.5 -25t32.5 -66q0 -28 -12.5 -46.5t-42.5 -36.5q68 -33 68 -95q0 -45 -38 -76.5t-91 -31.5q-51 0 -86.5 26.5t-35.5 65.5q0 13 10 43l51 -22q-4 -28 8 -44t24.5 -19t26.5 -3q27 0 45 18t18 46q0 32 -21.5 49.5
t-67.5 21.5v45q82 1 82 52q0 23 -16 37.5t-42 14.5q-10 0 -19 -2t-19 -12.5t-9 -30.5z" />
    <glyph glyph-name="acute" unicode="&#xb4;" horiz-adv-x="333" 
d="M190 547h-73l65 136h115z" />
    <glyph glyph-name="mu" unicode="&#xb5;" horiz-adv-x="556" 
d="M401 509h87v-509h-79v61q-27 -41 -56.5 -57t-75.5 -16q-40 0 -67 14t-55 50v-251h-87v708h87v-243q0 -70 7.5 -104t29.5 -58q32 -37 81 -37q47 0 80 28q29 25 38.5 59t9.5 110v245z" />
    <glyph glyph-name="paragraph" unicode="&#xb6;" horiz-adv-x="538" 
d="M280 -199h-83v515q-92 5 -145 59.5t-53 142.5q0 61 28.5 108.5t79.5 71.5q51 23 123 23h309v-90h-70v-830h-83v830h-106v-830z" />
    <glyph glyph-name="periodcentered" unicode="&#xb7;" horiz-adv-x="271" 
d="M87 217v126h97v-126h-97z" />
    <glyph glyph-name="cedilla" unicode="&#xb8;" horiz-adv-x="333" 
d="M60 -236l6 57q36 -2 45 -2q79 0 79 37q0 15 -14.5 22.5t-27 8.5t-34.5 1l25 87h66l-17 -52q40 -5 62 -24.5t22 -49.5q0 -41 -39 -66t-102 -25q-41 0 -71 6z" />
    <glyph glyph-name="one.superior" unicode="&#xb9;" horiz-adv-x="323" 
d="M96 613v49q55 35 87 83h44v-367h-60v283q-37 -33 -71 -48z" />
    <glyph glyph-name="ordmasculine" unicode="&#xba;" horiz-adv-x="375" 
d="M188 693q-43 0 -66.5 -30.5t-23.5 -87.5q0 -121 95 -121q39 0 62 32t23 87q0 56 -24 88t-66 32zM187 738q64 0 105 -45.5t41 -116.5q0 -75 -40 -121t-105 -46t-105.5 46.5t-40.5 120.5q0 71 40.5 116.5t104.5 45.5z" />
    <glyph glyph-name="guillemotright" unicode="&#xbb;" horiz-adv-x="479" 
d="M320 521l132 -244l-132 -242h-87l132 243l-132 243h87zM114 521l132 -244l-132 -242h-87l132 243l-132 243h87z" />
    <glyph glyph-name="onequarter" unicode="&#xbc;" horiz-adv-x="854" 
d="M657 -22v169l-118 -169h118zM488 1l170 241h65v-264h48v-59h-48v-89h-67v89h-168v82zM104 579v51q38 24 60 44t41 50h52v-413h-70v312q-35 -31 -83 -44zM56 -169l680 893h63l-678 -893h-65z" />
    <glyph glyph-name="onehalf" unicode="&#xbd;" horiz-adv-x="854" 
d="M610 90l-54 -34q-20 45 -20 74q0 50 35 81t93 31q53 0 89 -34.5t36 -85.5q0 -35 -19 -66.5t-36 -46t-48 -37.5q-54 -39 -79 -71h176v-61h-249q1 28 5.5 46.5t26 48.5t60.5 60q50 38 66 62t22 70q-3 67 -57 67q-26 0 -41 -17t-15 -45q0 -16 9 -42zM103 582v51
q35 19 56.5 38.5t43.5 51.5h51v-411h-68v312q-46 -38 -83 -42zM58 -169l675 892h64l-674 -892h-65z" />
    <glyph glyph-name="threequarters" unicode="&#xbe;" horiz-adv-x="854" 
d="M136 623l-62 -23q-6 24 -6 39q0 36 32 60t81 24q53 0 85 -27.5t32 -72.5q0 -32 -14.5 -52.5t-48.5 -39.5q75 -29 75 -101q0 -51 -37 -85t-94 -34q-51 0 -87.5 31.5t-36.5 75.5q0 17 10 47l65 -26q-5 -16 -5 -26q0 -24 14.5 -38.5t39.5 -14.5t39 17.5t14 47.5q0 44 -21 62
t-74 20v48q88 -2 88 60q0 28 -12.5 44t-35.5 16q-17 0 -30 -11t-13 -25q0 -9 2 -16zM58 -169l678 892h63l-676 -892h-65zM657 -22v167l-117 -167h117zM488 0l170 242h65v-264h48v-59h-48v-89h-66v88h-169v82z" />
    <glyph glyph-name="questiondown" unicode="&#xbf;" horiz-adv-x="531" 
d="M236 430v125h97v-125h-97zM384 55l81 -43q-3 -53 -15.5 -85.5t-40.5 -60.5q-55 -57 -146 -57q-85 0 -141 55.5t-56 138.5q0 57 26.5 103.5t91.5 102.5q39 34 50 57t12 69h75q0 -56 -10 -89t-24 -50.5t-53 -53.5q-74 -68 -74 -136q0 -49 32 -82t79 -33q113 0 113 164z" />
    <glyph glyph-name="Agrave" unicode="&#xc0;" horiz-adv-x="854" 
d="M571 263l-143 329l-144 -329h287zM68 0l316 721h88l315 -721h-100l-77 174h-364l-77 -174h-101zM406 910l66 -136h-71l-112 136h117z" />
    <glyph glyph-name="Aacute" unicode="&#xc1;" horiz-adv-x="854" 
d="M571 263l-143 329l-144 -329h287zM68 0l316 721h88l315 -721h-100l-77 174h-364l-77 -174h-101zM457 774h-73l65 136h115z" />
    <glyph glyph-name="Acircumflex" unicode="&#xc2;" horiz-adv-x="854" 
d="M571 263l-143 329l-144 -329h287zM68 0l316 721h88l315 -721h-100l-77 174h-364l-77 -174h-101zM483 774l-54 83l-55 -83h-101l106 136h93l110 -136h-99z" />
    <glyph glyph-name="Atilde" unicode="&#xc3;" horiz-adv-x="854" 
d="M571 263l-143 329l-144 -329h287zM68 0l316 721h88l315 -721h-100l-77 174h-364l-77 -174h-101zM329 786h-65q-1 52 28.5 81.5t72.5 29.5q30 0 74 -23l14 -7q24 -11 39 -11q16 0 24 9.5t11 32.5h64q-1 -52 -26 -81.5t-68 -29.5q-32 0 -74 23l-18 10q-23 12 -40 12
q-16 0 -26.5 -12t-9.5 -34z" />
    <glyph glyph-name="Adieresis" unicode="&#xc4;" horiz-adv-x="854" 
d="M571 263l-143 329l-144 -329h287zM68 0l316 721h88l315 -721h-100l-77 174h-364l-77 -174h-101zM382 783h-91v100h91v-100zM564 783h-91v100h91v-100z" />
    <glyph glyph-name="Aring" unicode="&#xc5;" horiz-adv-x="854" 
d="M571 263l-143 329l-144 -329h287zM68 0l316 721h88l315 -721h-100l-77 174h-364l-77 -174h-101zM340 844q0 36 26.5 61.5t63.5 25.5q35 0 60.5 -26t25.5 -63q0 -38 -25.5 -64t-62.5 -26t-62.5 27t-25.5 65zM378 844q0 -23 14.5 -39t36.5 -16t37 15.5t15 37.5t-15 37.5
t-37 15.5q-21 0 -36 -15t-15 -36z" />
    <glyph glyph-name="AE" unicode="&#xc6;" horiz-adv-x="1073" 
d="M531 637h-37l-215 -376h252v376zM23 0l415 721h551l-31 -84h-329v-225h303v-84h-303v-245h332l27 -83h-457v175h-300l-101 -175h-107z" />
    <glyph glyph-name="Ccedilla" unicode="&#xc7;" horiz-adv-x="750" 
d="M69 339q0 178 93.5 288.5t244.5 110.5q57 0 105 -16t76 -37.5t49.5 -49t29.5 -45.5t12 -32l-76 -65q-8 23 -14 37t-22.5 39.5t-34.5 40t-49.5 26.5t-69.5 12q-107 0 -172.5 -80.5t-65.5 -210.5q0 -77 19.5 -134.5t46 -86.5t62 -47t59 -22t45.5 -4q89 0 154 63
q28 27 53 78l68 -71q-31 -55 -63 -84q-77 -70 -198 -73l-16 -49q40 -5 62 -24.5t22 -49.5q0 -41 -39 -66t-102 -25q-41 0 -71 6l6 57q36 -2 45 -2q79 0 79 37q0 15 -14.5 22.5t-27 8.5t-34.5 1l25 86q-63 7 -113.5 32.5t-80 62.5t-50 75t-29 79.5t-11.5 66.5t-3 45z" />
    <glyph glyph-name="Egrave" unicode="&#xc8;" 
d="M91 0v721h449l-27 -85h-324v-221h297v-86h-297v-243h325l29 -86h-452zM283 910l66 -136h-71l-112 136h117z" />
    <glyph glyph-name="Eacute" unicode="&#xc9;" 
d="M91 0v721h449l-27 -85h-324v-221h297v-86h-297v-243h325l29 -86h-452zM321 774h-73l65 136h115z" />
    <glyph glyph-name="Ecircumflex" unicode="&#xca;" 
d="M91 0v721h449l-27 -85h-324v-221h297v-86h-297v-243h325l29 -86h-452zM363 774l-54 83l-55 -83h-101l106 136h93l110 -136h-99z" />
    <glyph glyph-name="Edieresis" unicode="&#xcb;" 
d="M91 0v721h449l-27 -85h-324v-221h297v-86h-297v-243h325l29 -86h-452zM262 783h-91v100h91v-100zM444 783h-91v100h91v-100z" />
    <glyph glyph-name="Igrave" unicode="&#xcc;" horiz-adv-x="323" 
d="M112 0v721h99v-721h-99zM140 910l66 -136h-71l-112 136h117z" />
    <glyph glyph-name="Iacute" unicode="&#xcd;" horiz-adv-x="323" 
d="M112 0v721h99v-721h-99zM184 774h-73l65 136h115z" />
    <glyph glyph-name="Icircumflex" unicode="&#xce;" horiz-adv-x="323" 
d="M112 0v721h99v-721h-99zM217 774l-54 83l-55 -83h-101l106 136h93l110 -136h-99z" />
    <glyph glyph-name="Idieresis" unicode="&#xcf;" horiz-adv-x="323" 
d="M112 0v721h99v-721h-99zM116 783h-91v100h91v-100zM298 783h-91v100h91v-100z" />
    <glyph glyph-name="Eth" unicode="&#xd0;" horiz-adv-x="802" 
d="M136 398v323h269q147 0 227 -80q108 -105 108 -280q0 -168 -86 -264.5t-237 -96.5h-281v322h-105v76h105zM406 633h-171v-235h234v-76h-234v-233h179q104 0 162.5 71t58.5 196q0 152 -78 225q-53 52 -151 52z" />
    <glyph glyph-name="Ntilde" unicode="&#xd1;" horiz-adv-x="750" 
d="M100 0v721h133l318 -562v562h99v-721h-118l-334 588v-588h-98zM287 786h-65q-1 52 28.5 81.5t72.5 29.5q30 0 74 -23l14 -7q24 -11 39 -11q16 0 24 9.5t11 32.5h64q-1 -52 -26 -81.5t-68 -29.5q-32 0 -74 23l-18 10q-23 12 -40 12q-16 0 -26.5 -12t-9.5 -34z" />
    <glyph glyph-name="Ograve" unicode="&#xd2;" horiz-adv-x="802" 
d="M404 650q-111 0 -175.5 -79.5t-64.5 -216.5q0 -129 66 -210t171 -81q109 0 173.5 82t64.5 219q0 130 -64 208t-171 78zM59 361q0 174 95 275.5t250 101.5q152 0 246 -103.5t94 -271.5q0 -94 -26.5 -166.5t-64.5 -112.5t-88 -66t-89.5 -34t-75.5 -8q-157 0 -249 103.5
t-92 281.5zM387 910l66 -136h-71l-112 136h117z" />
    <glyph glyph-name="Oacute" unicode="&#xd3;" horiz-adv-x="802" 
d="M404 650q-111 0 -175.5 -79.5t-64.5 -216.5q0 -129 66 -210t171 -81q109 0 173.5 82t64.5 219q0 130 -64 208t-171 78zM59 361q0 174 95 275.5t250 101.5q152 0 246 -103.5t94 -271.5q0 -94 -26.5 -166.5t-64.5 -112.5t-88 -66t-89.5 -34t-75.5 -8q-157 0 -249 103.5
t-92 281.5zM425 774h-73l65 136h115z" />
    <glyph glyph-name="Ocircumflex" unicode="&#xd4;" horiz-adv-x="802" 
d="M404 650q-111 0 -175.5 -79.5t-64.5 -216.5q0 -129 66 -210t171 -81q109 0 173.5 82t64.5 219q0 130 -64 208t-171 78zM59 361q0 174 95 275.5t250 101.5q152 0 246 -103.5t94 -271.5q0 -94 -26.5 -166.5t-64.5 -112.5t-88 -66t-89.5 -34t-75.5 -8q-157 0 -249 103.5
t-92 281.5zM457 774l-54 83l-55 -83h-101l106 136h93l110 -136h-99z" />
    <glyph glyph-name="Otilde" unicode="&#xd5;" horiz-adv-x="802" 
d="M404 650q-111 0 -175.5 -79.5t-64.5 -216.5q0 -129 66 -210t171 -81q109 0 173.5 82t64.5 219q0 130 -64 208t-171 78zM59 361q0 174 95 275.5t250 101.5q152 0 246 -103.5t94 -271.5q0 -94 -26.5 -166.5t-64.5 -112.5t-88 -66t-89.5 -34t-75.5 -8q-157 0 -249 103.5
t-92 281.5zM303 786h-65q-1 52 28.5 81.5t72.5 29.5q30 0 74 -23l14 -7q24 -11 39 -11q16 0 24 9.5t11 32.5h64q-1 -52 -26 -81.5t-68 -29.5q-32 0 -74 23l-18 10q-23 12 -40 12q-16 0 -26.5 -12t-9.5 -34z" />
    <glyph glyph-name="Odieresis" unicode="&#xd6;" horiz-adv-x="802" 
d="M404 650q-111 0 -175.5 -79.5t-64.5 -216.5q0 -129 66 -210t171 -81q109 0 173.5 82t64.5 219q0 130 -64 208t-171 78zM59 361q0 174 95 275.5t250 101.5q152 0 246 -103.5t94 -271.5q0 -94 -26.5 -166.5t-64.5 -112.5t-88 -66t-89.5 -34t-75.5 -8q-157 0 -249 103.5
t-92 281.5zM356 783h-91v100h91v-100zM538 783h-91v100h91v-100z" />
    <glyph glyph-name="multiply" unicode="&#xd7;" horiz-adv-x="668" 
d="M280 325l-194 194l54 54l194 -194l194 194l55 -54l-194 -194l192 -193l-54 -54l-192 193l-194 -193l-54 54z" />
    <glyph glyph-name="Oslash" unicode="&#xd8;" horiz-adv-x="802" 
d="M554 594q-61 56 -149 56q-111 0 -175.5 -79.5t-64.5 -216.5q0 -96 36 -163zM249 124q63 -61 153 -61q109 0 173.5 82t64.5 219q0 97 -37 166zM129 109q-69 98 -69 252q0 174 95 275.5t250 101.5q126 0 212 -71l63 72l59 -53l-67 -77q73 -98 73 -246q0 -94 -26.5 -166.5
t-64.5 -112.5t-88 -66t-89.5 -34t-75.5 -8q-132 0 -217 73l-65 -75l-61 53z" />
    <glyph glyph-name="Ugrave" unicode="&#xd9;" horiz-adv-x="750" 
d="M551 247v474h99v-489q0 -120 -61 -182q-72 -74 -215 -74q-128 0 -201 64t-73 177v504h99v-495q0 -77 46.5 -118t134.5 -41q39 0 75.5 12.5t57.5 34.5q38 38 38 133zM361 910l66 -136h-71l-112 136h117z" />
    <glyph glyph-name="Uacute" unicode="&#xda;" horiz-adv-x="750" 
d="M551 247v474h99v-489q0 -120 -61 -182q-72 -74 -215 -74q-128 0 -201 64t-73 177v504h99v-495q0 -77 46.5 -118t134.5 -41q39 0 75.5 12.5t57.5 34.5q38 38 38 133zM399 774h-73l65 136h115z" />
    <glyph glyph-name="Ucircumflex" unicode="&#xdb;" horiz-adv-x="750" 
d="M551 247v474h99v-489q0 -120 -61 -182q-72 -74 -215 -74q-128 0 -201 64t-73 177v504h99v-495q0 -77 46.5 -118t134.5 -41q39 0 75.5 12.5t57.5 34.5q38 38 38 133zM431 774l-54 83l-55 -83h-101l106 136h93l110 -136h-99z" />
    <glyph glyph-name="Udieresis" unicode="&#xdc;" horiz-adv-x="750" 
d="M551 247v474h99v-489q0 -120 -61 -182q-72 -74 -215 -74q-128 0 -201 64t-73 177v504h99v-495q0 -77 46.5 -118t134.5 -41q39 0 75.5 12.5t57.5 34.5q38 38 38 133zM330 783h-91v100h91v-100zM512 783h-91v100h91v-100z" />
    <glyph glyph-name="Yacute" unicode="&#xdd;" horiz-adv-x="698" 
d="M296 292l-255 429h111l193 -325l202 325h111l-263 -425v-296h-99v292zM373 774h-73l65 136h115z" />
    <glyph glyph-name="Thorn" unicode="&#xde;" horiz-adv-x="698" 
d="M361 488h-158v-255h146q89 0 131 30.5t42 94.5q0 130 -161 130zM105 721h98v-146h193q105 0 171 -59.5t66 -154.5q0 -100 -69 -157t-189 -57h-172v-147h-98v721z" />
    <glyph glyph-name="germandbls" unicode="&#xdf;" 
d="M76 0v545q0 90 53.5 140t150.5 50q96 0 156.5 -49t60.5 -126q0 -115 -106 -149q25 -11 41 -21.5t39 -33t35 -60.5t12 -89q0 -99 -47 -159t-124 -60q-98 0 -133 90q-10 29 -10 80h68q5 -100 72 -100q43 0 62 35t19 112q0 42 -5 70.5t-20 53t-44 36.5t-75 13v69q67 1 96 27
t29 82q0 108 -124 108q-68 0 -95.5 -31.5t-27.5 -110.5v-522h-83z" />
    <glyph glyph-name="agrave" unicode="&#xe0;" horiz-adv-x="531" 
d="M365 218v80q-26 -20 -42.5 -26.5t-59.5 -14.5q-76 -13 -105 -48q-25 -28 -25 -64q0 -41 26 -66.5t67 -25.5q53 0 95 40q25 24 34.5 51.5t9.5 73.5zM133 358l-69 37q9 23 18.5 37.5t31 34.5t60.5 30.5t93 10.5q44 0 76.5 -7t51.5 -20.5t31 -26.5t16.5 -33t5.5 -30.5
t1 -28.5l-1 -242q0 -46 6 -56t33 -11v-57q-36 -11 -53 -11q-23 0 -38 8.5t-21.5 24.5t-8.5 30t-2 34q-21 -26 -37.5 -43t-53 -35.5t-75.5 -18.5q-65 0 -109 46t-44 115q0 62 45 109q50 52 164 63q54 6 71 12.5t40 30.5q-1 45 -20 60t-74 15q-57 0 -89 -18t-49 -60zM251 683
l66 -136h-71l-112 136h117z" />
    <glyph glyph-name="aacute" unicode="&#xe1;" horiz-adv-x="531" 
d="M365 218v80q-26 -20 -42.5 -26.5t-59.5 -14.5q-76 -13 -105 -48q-25 -28 -25 -64q0 -41 26 -66.5t67 -25.5q53 0 95 40q25 24 34.5 51.5t9.5 73.5zM133 358l-69 37q9 23 18.5 37.5t31 34.5t60.5 30.5t93 10.5q44 0 76.5 -7t51.5 -20.5t31 -26.5t16.5 -33t5.5 -30.5
t1 -28.5l-1 -242q0 -46 6 -56t33 -11v-57q-36 -11 -53 -11q-23 0 -38 8.5t-21.5 24.5t-8.5 30t-2 34q-21 -26 -37.5 -43t-53 -35.5t-75.5 -18.5q-65 0 -109 46t-44 115q0 62 45 109q50 52 164 63q54 6 71 12.5t40 30.5q-1 45 -20 60t-74 15q-57 0 -89 -18t-49 -60zM289 547
h-73l65 136h115z" />
    <glyph glyph-name="acircumflex" unicode="&#xe2;" horiz-adv-x="531" 
d="M365 218v80q-26 -20 -42.5 -26.5t-59.5 -14.5q-76 -13 -105 -48q-25 -28 -25 -64q0 -41 26 -66.5t67 -25.5q53 0 95 40q25 24 34.5 51.5t9.5 73.5zM133 358l-69 37q9 23 18.5 37.5t31 34.5t60.5 30.5t93 10.5q44 0 76.5 -7t51.5 -20.5t31 -26.5t16.5 -33t5.5 -30.5
t1 -28.5l-1 -242q0 -46 6 -56t33 -11v-57q-36 -11 -53 -11q-23 0 -38 8.5t-21.5 24.5t-8.5 30t-2 34q-21 -26 -37.5 -43t-53 -35.5t-75.5 -18.5q-65 0 -109 46t-44 115q0 62 45 109q50 52 164 63q54 6 71 12.5t40 30.5q-1 45 -20 60t-74 15q-57 0 -89 -18t-49 -60zM321 547
l-54 83l-55 -83h-101l106 136h93l110 -136h-99z" />
    <glyph glyph-name="atilde" unicode="&#xe3;" horiz-adv-x="531" 
d="M365 218v80q-26 -20 -42.5 -26.5t-59.5 -14.5q-76 -13 -105 -48q-25 -28 -25 -64q0 -41 26 -66.5t67 -25.5q53 0 95 40q25 24 34.5 51.5t9.5 73.5zM133 358l-69 37q9 23 18.5 37.5t31 34.5t60.5 30.5t93 10.5q44 0 76.5 -7t51.5 -20.5t31 -26.5t16.5 -33t5.5 -30.5
t1 -28.5l-1 -242q0 -46 6 -56t33 -11v-57q-36 -11 -53 -11q-23 0 -38 8.5t-21.5 24.5t-8.5 30t-2 34q-21 -26 -37.5 -43t-53 -35.5t-75.5 -18.5q-65 0 -109 46t-44 115q0 62 45 109q50 52 164 63q54 6 71 12.5t40 30.5q-1 45 -20 60t-74 15q-57 0 -89 -18t-49 -60zM167 559
h-65q-1 52 28.5 81.5t72.5 29.5q30 0 74 -23l14 -7q24 -11 39 -11q16 0 24 9.5t11 32.5h64q-1 -52 -26 -81.5t-68 -29.5q-32 0 -74 23l-18 10q-23 12 -40 12q-16 0 -26.5 -12t-9.5 -34z" />
    <glyph glyph-name="adieresis" unicode="&#xe4;" horiz-adv-x="531" 
d="M365 218v80q-26 -20 -42.5 -26.5t-59.5 -14.5q-76 -13 -105 -48q-25 -28 -25 -64q0 -41 26 -66.5t67 -25.5q53 0 95 40q25 24 34.5 51.5t9.5 73.5zM133 358l-69 37q9 23 18.5 37.5t31 34.5t60.5 30.5t93 10.5q44 0 76.5 -7t51.5 -20.5t31 -26.5t16.5 -33t5.5 -30.5
t1 -28.5l-1 -242q0 -46 6 -56t33 -11v-57q-36 -11 -53 -11q-23 0 -38 8.5t-21.5 24.5t-8.5 30t-2 34q-21 -26 -37.5 -43t-53 -35.5t-75.5 -18.5q-65 0 -109 46t-44 115q0 62 45 109q50 52 164 63q54 6 71 12.5t40 30.5q-1 45 -20 60t-74 15q-57 0 -89 -18t-49 -60zM220 556
h-91v100h91v-100zM402 556h-91v100h91v-100z" />
    <glyph glyph-name="aring" unicode="&#xe5;" horiz-adv-x="531" 
d="M365 218v80q-26 -20 -42.5 -26.5t-59.5 -14.5q-76 -13 -105 -48q-25 -28 -25 -64q0 -41 26 -66.5t67 -25.5q53 0 95 40q25 24 34.5 51.5t9.5 73.5zM133 358l-69 37q9 23 18.5 37.5t31 34.5t60.5 30.5t93 10.5q44 0 76.5 -7t51.5 -20.5t31 -26.5t16.5 -33t5.5 -30.5
t1 -28.5l-1 -242q0 -46 6 -56t33 -11v-57q-36 -11 -53 -11q-23 0 -38 8.5t-21.5 24.5t-8.5 30t-2 34q-21 -26 -37.5 -43t-53 -35.5t-75.5 -18.5q-65 0 -109 46t-44 115q0 62 45 109q50 52 164 63q54 6 71 12.5t40 30.5q-1 45 -20 60t-74 15q-57 0 -89 -18t-49 -60zM178 617
q0 36 26.5 61.5t63.5 25.5q35 0 60.5 -26t25.5 -63q0 -38 -25.5 -64t-62.5 -26t-62.5 27t-25.5 65zM216 617q0 -23 14.5 -39t36.5 -16t37 15.5t15 37.5t-15 37.5t-37 15.5q-21 0 -36 -15t-15 -36z" />
    <glyph glyph-name="ae" unicode="&#xe6;" horiz-adv-x="854" 
d="M459 289h256q-2 43 -15.5 74.5t-28.5 46t-36 22.5t-30 9t-18 1q-79 0 -112 -76q-12 -27 -16 -77zM372 217v80q-29 -21 -47.5 -28t-60.5 -15q-58 -10 -91 -35t-33 -76q0 -40 25.5 -65t67.5 -25q53 0 94 38q45 44 45 126zM140 360l-70 36q8 21 16 35t29 34.5t61.5 31.5
t97.5 11q66 0 101.5 -13.5t63.5 -49.5q68 64 154 64q91 0 150.5 -69t59.5 -176q0 -21 -2 -42h-343q4 -89 47 -132q35 -37 89 -37q101 0 132 108l69 -33q-64 -143 -205 -143q-70 0 -116 32.5t-79 100.5q-18 -27 -30.5 -43.5t-37 -40.5t-55 -36.5t-65.5 -12.5q-69 0 -112 44.5
t-43 115.5q0 64 43 109q49 49 158 60q56 6 75 13.5t44 32.5q2 41 -17.5 60.5t-76.5 19.5q-107 0 -138 -80z" />
    <glyph glyph-name="ccedilla" unicode="&#xe7;" horiz-adv-x="531" 
d="M414 156l63 -34q-3 -16 -13.5 -36t-30.5 -43t-57 -39.5t-84 -17.5l-15 -45q40 -5 62 -24.5t22 -49.5q0 -41 -39 -66t-102 -25q-41 0 -71 6l6 57q36 -2 45 -2q79 0 79 37q0 15 -14.5 22.5t-27 8.5t-34.5 1l25 86q-79 19 -126.5 88.5t-47.5 169.5q0 112 64.5 185t164.5 73
q46 0 82.5 -15.5t57 -39.5t31.5 -45t15 -40l-69 -33q-28 102 -120 102q-67 0 -103 -49t-36 -140q0 -105 48 -154q40 -42 98 -42q95 0 127 104z" />
    <glyph glyph-name="egrave" unicode="&#xe8;" horiz-adv-x="530" 
d="M138 286h257q-2 43 -15.5 74.5t-28.5 46t-35.5 22.5t-29.5 9t-18 1q-59 0 -92.5 -40t-37.5 -113zM408 160l67 -33q-23 -51 -52 -80q-64 -62 -155 -62q-98 0 -158.5 72.5t-60.5 188.5t62 188.5t161 72.5q91 0 150.5 -67t59.5 -168q0 -11 -2 -53h-344q2 -47 16.5 -81
t30.5 -50t38.5 -25t32.5 -10t21 -1q33 0 58.5 11.5t40.5 32.5t21 33t13 31zM251 683l66 -136h-71l-112 136h117z" />
    <glyph glyph-name="eacute" unicode="&#xe9;" horiz-adv-x="530" 
d="M138 286h257q-2 43 -15.5 74.5t-28.5 46t-35.5 22.5t-29.5 9t-18 1q-59 0 -92.5 -40t-37.5 -113zM408 160l67 -33q-23 -51 -52 -80q-64 -62 -155 -62q-98 0 -158.5 72.5t-60.5 188.5t62 188.5t161 72.5q91 0 150.5 -67t59.5 -168q0 -11 -2 -53h-344q2 -47 16.5 -81
t30.5 -50t38.5 -25t32.5 -10t21 -1q33 0 58.5 11.5t40.5 32.5t21 33t13 31zM289 547h-73l65 136h115z" />
    <glyph glyph-name="ecircumflex" unicode="&#xea;" horiz-adv-x="530" 
d="M138 286h257q-2 43 -15.5 74.5t-28.5 46t-35.5 22.5t-29.5 9t-18 1q-59 0 -92.5 -40t-37.5 -113zM408 160l67 -33q-23 -51 -52 -80q-64 -62 -155 -62q-98 0 -158.5 72.5t-60.5 188.5t62 188.5t161 72.5q91 0 150.5 -67t59.5 -168q0 -11 -2 -53h-344q2 -47 16.5 -81
t30.5 -50t38.5 -25t32.5 -10t21 -1q33 0 58.5 11.5t40.5 32.5t21 33t13 31zM321 547l-54 83l-55 -83h-101l106 136h93l110 -136h-99z" />
    <glyph glyph-name="edieresis" unicode="&#xeb;" horiz-adv-x="530" 
d="M138 286h257q-2 43 -15.5 74.5t-28.5 46t-35.5 22.5t-29.5 9t-18 1q-59 0 -92.5 -40t-37.5 -113zM408 160l67 -33q-23 -51 -52 -80q-64 -62 -155 -62q-98 0 -158.5 72.5t-60.5 188.5t62 188.5t161 72.5q91 0 150.5 -67t59.5 -168q0 -11 -2 -53h-344q2 -47 16.5 -81
t30.5 -50t38.5 -25t32.5 -10t21 -1q33 0 58.5 11.5t40.5 32.5t21 33t13 31zM220 556h-91v100h91v-100zM402 556h-91v100h91v-100z" />
    <glyph glyph-name="igrave" unicode="&#xec;" horiz-adv-x="271" 
d="M94 0v494h84v-494h-84zM112 683l66 -136h-71l-112 136h117z" />
    <glyph glyph-name="iacute" unicode="&#xed;" horiz-adv-x="271" 
d="M94 0v494h84v-494h-84zM167 547h-73l65 136h115z" />
    <glyph glyph-name="icircumflex" unicode="&#xee;" horiz-adv-x="271" 
d="M94 0v494h84v-494h-84zM191 547l-54 83l-55 -83h-101l106 136h93l110 -136h-99z" />
    <glyph glyph-name="idieresis" unicode="&#xef;" horiz-adv-x="271" 
d="M94 0v494h84v-494h-84zM90 556h-91v100h91v-100zM272 556h-91v100h91v-100z" />
    <glyph glyph-name="eth" unicode="&#xf0;" 
d="M304 58q62 0 99.5 52.5t37.5 139.5q0 88 -39 138t-107 50q-67 0 -103.5 -49.5t-36.5 -139.5q0 -91 39 -141t110 -50zM169 537l-22 51l110 48h-1q-37 24 -78 40l32 48q57 -13 122 -56l126 54l22 -51l-99 -42q31 -29 60 -66q88 -115 88 -293q0 -150 -75 -222
q-29 -28 -71.5 -45t-84.5 -17q-102 0 -167 73.5t-65 188.5q0 111 64 186t158 75q51 0 111 -37q-4 21 -29 56t-63 69z" />
    <glyph glyph-name="ntilde" unicode="&#xf1;" 
d="M495 343v-343h-84v318q0 55 -27 86t-75 31q-55 0 -90 -34.5t-35 -88.5v-312h-84v494h84v-88q69 101 161 101q67 0 108.5 -45.5t41.5 -118.5zM199 559h-65q-1 52 28.5 81.5t72.5 29.5q30 0 74 -23l14 -7q24 -11 39 -11q16 0 24 9.5t11 32.5h64q-1 -52 -26 -81.5t-68 -29.5
q-32 0 -74 23l-18 10q-23 12 -40 12q-16 0 -26.5 -12t-9.5 -34z" />
    <glyph glyph-name="ograve" unicode="&#xf2;" 
d="M294 436q-65 0 -102 -49.5t-37 -142.5q0 -89 38.5 -138t108.5 -49q64 0 100.5 50.5t36.5 138.5q0 96 -39.5 143t-105.5 47zM295 507q102 0 167 -71.5t65 -183.5q0 -122 -63.5 -194.5t-169.5 -72.5q-101 0 -164 73.5t-63 190.5q0 113 64 185.5t164 72.5zM283 683l66 -136
h-71l-112 136h117z" />
    <glyph glyph-name="oacute" unicode="&#xf3;" 
d="M294 436q-65 0 -102 -49.5t-37 -142.5q0 -89 38.5 -138t108.5 -49q64 0 100.5 50.5t36.5 138.5q0 96 -39.5 143t-105.5 47zM295 507q102 0 167 -71.5t65 -183.5q0 -122 -63.5 -194.5t-169.5 -72.5q-101 0 -164 73.5t-63 190.5q0 113 64 185.5t164 72.5zM321 547h-73
l65 136h115z" />
    <glyph glyph-name="ocircumflex" unicode="&#xf4;" 
d="M294 436q-65 0 -102 -49.5t-37 -142.5q0 -89 38.5 -138t108.5 -49q64 0 100.5 50.5t36.5 138.5q0 96 -39.5 143t-105.5 47zM295 507q102 0 167 -71.5t65 -183.5q0 -122 -63.5 -194.5t-169.5 -72.5q-101 0 -164 73.5t-63 190.5q0 113 64 185.5t164 72.5zM353 547l-54 83
l-55 -83h-101l106 136h93l110 -136h-99z" />
    <glyph glyph-name="otilde" unicode="&#xf5;" 
d="M294 436q-65 0 -102 -49.5t-37 -142.5q0 -89 38.5 -138t108.5 -49q64 0 100.5 50.5t36.5 138.5q0 96 -39.5 143t-105.5 47zM295 507q102 0 167 -71.5t65 -183.5q0 -122 -63.5 -194.5t-169.5 -72.5q-101 0 -164 73.5t-63 190.5q0 113 64 185.5t164 72.5zM199 559h-65
q-1 52 28.5 81.5t72.5 29.5q30 0 74 -23l14 -7q24 -11 39 -11q16 0 24 9.5t11 32.5h64q-1 -52 -26 -81.5t-68 -29.5q-32 0 -74 23l-18 10q-23 12 -40 12q-16 0 -26.5 -12t-9.5 -34z" />
    <glyph glyph-name="odieresis" unicode="&#xf6;" 
d="M294 436q-65 0 -102 -49.5t-37 -142.5q0 -89 38.5 -138t108.5 -49q64 0 100.5 50.5t36.5 138.5q0 96 -39.5 143t-105.5 47zM295 507q102 0 167 -71.5t65 -183.5q0 -122 -63.5 -194.5t-169.5 -72.5q-101 0 -164 73.5t-63 190.5q0 113 64 185.5t164 72.5zM252 556h-91v100
h91v-100zM434 556h-91v100h91v-100z" />
    <glyph glyph-name="divide" unicode="&#xf7;" horiz-adv-x="668" 
d="M284 528q0 19 14 32.5t34 13.5t34 -14t14 -34t-14 -34t-33 -14q-20 0 -34.5 14.5t-14.5 35.5zM284 125q0 20 14.5 34t34.5 14t34 -13.5t14 -33.5t-14 -34.5t-34 -14.5t-34.5 14t-14.5 34zM66 287v77h536v-77h-536z" />
    <glyph glyph-name="oslash" unicode="&#xf8;" 
d="M387 404q-35 32 -91 32q-65 0 -102 -49.5t-37 -142.5q0 -48 13 -90zM210 91q35 -34 94 -34q64 0 100.5 50.5t36.5 138.5q0 58 -15 95zM112 87q-43 68 -43 162q0 113 64 185.5t164 72.5q80 0 139 -46l56 64l52 -48l-60 -69q45 -64 45 -156q0 -122 -63.5 -194.5
t-169.5 -72.5q-80 0 -137 48l-55 -63l-53 47z" />
    <glyph glyph-name="ugrave" unicode="&#xf9;" 
d="M99 146v348h84v-311q0 -125 99 -125q53 0 91 38.5t38 93.5v304h84v-494h-86v87q-66 -103 -155 -103q-70 0 -112.5 44.5t-42.5 117.5zM283 683l66 -136h-71l-112 136h117z" />
    <glyph glyph-name="uacute" unicode="&#xfa;" 
d="M99 146v348h84v-311q0 -125 99 -125q53 0 91 38.5t38 93.5v304h84v-494h-86v87q-66 -103 -155 -103q-70 0 -112.5 44.5t-42.5 117.5zM321 547h-73l65 136h115z" />
    <glyph glyph-name="ucircumflex" unicode="&#xfb;" 
d="M99 146v348h84v-311q0 -125 99 -125q53 0 91 38.5t38 93.5v304h84v-494h-86v87q-66 -103 -155 -103q-70 0 -112.5 44.5t-42.5 117.5zM353 547l-54 83l-55 -83h-101l106 136h93l110 -136h-99z" />
    <glyph glyph-name="udieresis" unicode="&#xfc;" 
d="M99 146v348h84v-311q0 -125 99 -125q53 0 91 38.5t38 93.5v304h84v-494h-86v87q-66 -103 -155 -103q-70 0 -112.5 44.5t-42.5 117.5zM252 556h-91v100h91v-100zM434 556h-91v100h91v-100z" />
    <glyph glyph-name="yacute" unicode="&#xfd;" horiz-adv-x="479" 
d="M211 -12l-173 506h79l129 -386l115 386h80l-159 -513l-8 -28q-10 -33 -15.5 -48.5t-17.5 -37.5t-26.5 -32t-39 -18t-57.5 -8q-21 0 -57 4v70q35 -6 55 -6q40 0 56.5 19.5t38.5 91.5zM263 547h-73l65 136h115z" />
    <glyph glyph-name="thorn" unicode="&#xfe;" 
d="M326 57q58 0 88.5 50t30.5 143q0 88 -30.5 135.5t-86.5 47.5q-66 0 -103 -50t-37 -139q0 -85 37.5 -136t100.5 -51zM188 721v-347q11 28 21 45.5t29 39.5t48 33.5t67 11.5q81 0 130 -69.5t49 -184.5q0 -118 -51.5 -190.5t-135.5 -72.5q-60 0 -93 32.5t-63 93.5v-304h-81
v912h80z" />
    <glyph glyph-name="ydieresis" unicode="&#xff;" horiz-adv-x="479" 
d="M211 -12l-173 506h79l129 -386l115 386h80l-159 -513l-8 -28q-10 -33 -15.5 -48.5t-17.5 -37.5t-26.5 -32t-39 -18t-57.5 -8q-21 0 -57 4v70q35 -6 55 -6q40 0 56.5 19.5t38.5 91.5zM194 556h-91v100h91v-100zM376 556h-91v100h91v-100z" />
    <glyph glyph-name="dotlessi" unicode="&#x131;" horiz-adv-x="271" 
d="M94 0v494h84v-494h-84z" />
    <glyph glyph-name="Lslash" unicode="&#x141;" 
d="M142 367v354h98v-272l124 103v-100l-124 -102v-264h346v-86h-444v268l-95 -78v98z" />
    <glyph glyph-name="lslash" unicode="&#x142;" horiz-adv-x="271" 
d="M94 368v353h84v-284l77 64v-88l-77 -64v-349h-84v280l-78 -65v88z" />
    <glyph glyph-name="OE" unicode="&#x152;" horiz-adv-x="1073" 
d="M573 85v553q-75 0 -96 1h-34q-83 0 -129.5 -13.5t-78.5 -46.5q-73 -76 -73 -221q0 -144 74 -220q33 -34 73 -45.5t123 -11.5l92 2zM395 725l35 -2l70 -2h523l-30 -83h-321v-225h295v-84h-295v-244h323l30 -84h-470q-12 0 -84 -2q-74 -2 -87 -2q-155 0 -245.5 96
t-90.5 259q0 176 96.5 277t250.5 96z" />
    <glyph glyph-name="oe" unicode="&#x153;" horiz-adv-x="853" 
d="M488 287h237q-1 71 -33 113t-85 42q-14 0 -30.5 -5t-38 -19t-36 -48t-14.5 -83zM264 436q-62 0 -98 -50.5t-36 -138.5t36.5 -138.5t99.5 -50.5q61 0 95 51.5t34 142.5q0 85 -35 134.5t-96 49.5zM736 161l68 -33q-11 -25 -21.5 -42t-34 -44t-61 -42t-86.5 -15
q-44 0 -80 19t-49.5 35.5t-32.5 43.5q-22 -28 -41.5 -46.5t-55.5 -35t-77 -16.5q-95 0 -159.5 73t-64.5 182q0 117 62 192t158 75q48 0 87.5 -18t55 -33.5t37.5 -42.5q24 34 46 52q54 42 125 42q84 0 142.5 -67.5t58.5 -163.5q0 -22 -3 -57h-325q2 -45 14 -78t26.5 -49.5
t34 -26t30.5 -11t23 -1.5q92 0 123 108z" />
    <glyph glyph-name="Scaron" unicode="&#x160;" horiz-adv-x="698" 
d="M64 166l83 69q10 -45 25 -73t43 -50q58 -49 152 -49q67 0 114 39t47 95q0 53 -41 83.5t-143 54.5q-84 20 -116 34t-78 51q-55 58 -55 127q0 86 73 139.5t191 53.5q54 0 97.5 -13t68 -28.5t46 -41.5t27.5 -38t15 -32l-74 -69q-6 19 -11 31t-19.5 33.5t-32.5 34t-51 23
t-74 10.5q-71 0 -112.5 -27.5t-41.5 -75.5q0 -24 15.5 -42.5t47.5 -32t52.5 -20t58.5 -15.5q42 -10 70.5 -18t68.5 -26.5t64 -41.5t42 -60.5t18 -84.5q0 -104 -78 -167.5t-207 -63.5q-155 0 -236 95q-29 35 -49 96zM295 910l55 -83l54 83h100l-110 -136h-94l-105 136h100z
" />
    <glyph glyph-name="scaron" unicode="&#x161;" horiz-adv-x="531" 
d="M60 124l67 40q12 -112 142 -112q51 0 85 21t34 53t-30 51.5t-99 31.5q-41 8 -70 17.5t-57 26.5t-42.5 45t-14.5 65q0 65 53.5 105t138.5 40q50 0 89 -15.5t59 -39t30 -43.5t12 -35l-59 -40q-25 104 -133 104q-47 0 -80 -20t-33 -48q0 -30 30 -48.5t98 -29.5q1 0 6 -1
q183 -28 185 -153q0 -7 -1.5 -18t-12.5 -37.5t-31 -46.5t-64 -36.5t-103 -16.5q-88 0 -143 44q-22 17 -33.5 37t-22.5 59zM211 683l55 -83l54 83h100l-110 -136h-94l-105 136h100z" />
    <glyph glyph-name="Ydieresis" unicode="&#x178;" horiz-adv-x="698" 
d="M296 292l-255 429h111l193 -325l202 325h111l-263 -425v-296h-99v292zM304 783h-91v100h91v-100zM486 783h-91v100h91v-100z" />
    <glyph glyph-name="Zcaron" unicode="&#x17d;" horiz-adv-x="646" 
d="M88 634v87h507v-56l-406 -578h404v-87h-542v55l406 579h-369zM269 910l55 -83l54 83h100l-110 -136h-94l-105 136h100z" />
    <glyph glyph-name="zcaron" unicode="&#x17e;" horiz-adv-x="479" 
d="M83 426v68h326v-51l-246 -376h253v-67h-353v63l237 363h-217zM185 683l55 -83l54 83h100l-110 -136h-94l-105 136h100z" />
    <glyph glyph-name="florin" unicode="&#x192;" horiz-adv-x="323" 
d="M67 494h90l30 124q29 121 172 121q32 0 71 -4l-19 -76q-30 3 -48 3q-83 0 -100 -72l-24 -96h86l-17 -66h-84l-130 -565h-83l131 565h-93z" />
    <glyph glyph-name="circumflex" unicode="&#x2c6;" horiz-adv-x="333" 
d="M222 547l-54 83l-55 -83h-101l106 136h93l110 -136h-99z" />
    <glyph glyph-name="caron" unicode="&#x2c7;" horiz-adv-x="333" 
d="M112 683l55 -83l54 83h100l-110 -136h-94l-105 136h100z" />
    <glyph glyph-name="uni02C9" unicode="&#x2c9;" horiz-adv-x="333" 
d="M319 563h-305v72h305v-72z" />
    <glyph glyph-name="breve" unicode="&#x2d8;" horiz-adv-x="333" 
d="M168 552q-64 0 -101.5 32.5t-44.5 93.5h61q11 -66 84 -65q71 0 84 65h60q-8 -61 -44.5 -93.5t-98.5 -32.5z" />
    <glyph glyph-name="dotaccent" unicode="&#x2d9;" horiz-adv-x="333" 
d="M221 547h-109v109h109v-109z" />
    <glyph glyph-name="ring" unicode="&#x2da;" horiz-adv-x="333" 
d="M79 617q0 36 26.5 61.5t63.5 25.5q35 0 60.5 -26t25.5 -63q0 -38 -25.5 -64t-62.5 -26t-62.5 27t-25.5 65zM117 617q0 -23 14.5 -39t36.5 -16t37 15.5t15 37.5t-15 37.5t-37 15.5q-21 0 -36 -15t-15 -36z" />
    <glyph glyph-name="ogonek" unicode="&#x2db;" horiz-adv-x="333" 
d="M273 -157v-58q-58 -29 -107 -29q-48 0 -77 29.5t-29 77.5q0 43 20 112h60q-19 -43 -19 -78q0 -34 20 -55t53 -21q35 0 79 22z" />
    <glyph glyph-name="tilde" unicode="&#x2dc;" horiz-adv-x="333" 
d="M68 559h-65q-1 52 28.5 81.5t72.5 29.5q30 0 74 -23l14 -7q24 -11 39 -11q16 0 24 9.5t11 32.5h64q-1 -52 -26 -81.5t-68 -29.5q-32 0 -74 23l-18 10q-23 12 -40 12q-16 0 -26.5 -12t-9.5 -34z" />
    <glyph glyph-name="hungarumlaut" unicode="&#x2dd;" horiz-adv-x="333" 
d="M65 547h-70l59 136h114zM238 547h-74l62 136h113z" />
    <glyph glyph-name="uni03A9" unicode="&#x3a9;" horiz-adv-x="612" 
d="M164 68v3q-113 123 -113 300q0 141 73 231t185 90q113 0 181.5 -93t68.5 -222q0 -96 -33 -176.5t-81 -129.5v-3h126v-68h-211v50q50 40 84 121t34 188q0 65 -18 123.5t-58 98.5t-95 40q-80 0 -127.5 -74.5t-47.5 -190.5q0 -101 35.5 -185t83.5 -121v-50h-212v68h125z" />
    <glyph glyph-name="uni03BC" unicode="&#x3bc;" horiz-adv-x="556" 
d="M401 509h87v-509h-79v61q-27 -41 -56.5 -57t-75.5 -16q-40 0 -67 14t-55 50v-251h-87v708h87v-243q0 -70 7.5 -104t29.5 -58q32 -37 81 -37q47 0 80 28q29 25 38.5 59t9.5 110v245z" />
    <glyph glyph-name="pi" unicode="&#x3c0;" horiz-adv-x="504" 
d="M481 437h-67v-299q0 -93 12 -138h-76q-15 28 -15 133v304h-145q-4 -103 -21.5 -235.5t-40.5 -201.5h-78q24 79 41.5 208.5t19.5 228.5q-60 0 -91 -11l-11 55q37 28 130 28h348z" />
    <glyph glyph-name="endash" unicode="&#x2013;" horiz-adv-x="500" 
d="M-5 206v89h510v-89h-510z" />
    <glyph glyph-name="emdash" unicode="&#x2014;" horiz-adv-x="1000" 
d="M-5 206v89h1009v-89h-1009z" />
    <glyph glyph-name="quoteleft" unicode="&#x2018;" horiz-adv-x="271" 
d="M88 453v110q0 96 62 158l28 -29q-20 -33 -26.5 -53.5t-7.5 -58.5h40v-127h-96z" />
    <glyph glyph-name="quoteright" unicode="&#x2019;" horiz-adv-x="271" 
d="M86 594v127h98v-140q0 -32 -16.5 -67t-43.5 -61l-30 31q18 30 23.5 50.5t6.5 59.5h-38z" />
    <glyph glyph-name="quotesinglbase" unicode="&#x201a;" horiz-adv-x="271" 
d="M88 0v128h98v-133q0 -104 -81 -155l-19 39q41 47 39 121h-37z" />
    <glyph glyph-name="quotedblleft" unicode="&#x201c;" horiz-adv-x="479" 
d="M80 456v105q0 99 62 160l31 -27q-22 -33 -28.5 -54.5t-6.5 -58.5h40v-125h-98zM302 456v108q0 86 65 157l28 -26q-31 -49 -32 -115h36v-124h-97z" />
    <glyph glyph-name="quotedblright" unicode="&#x201d;" horiz-adv-x="479" 
d="M80 596v125h98v-119q0 -83 -65 -146l-29 27q19 28 25.5 50.5t7.5 62.5h-37zM301 596v125h98v-112q0 -86 -62 -153l-29 28q19 31 25.5 52.5t8.5 59.5h-41z" />
    <glyph glyph-name="quotedblbase" unicode="&#x201e;" horiz-adv-x="479" 
d="M82 0v128h98v-133q0 -98 -80 -155l-20 39q26 34 33.5 57.5t5.5 63.5h-37zM303 0v128h97v-133q0 -103 -80 -155l-19 39q27 35 33.5 58t5.5 63h-37z" />
    <glyph glyph-name="dagger" unicode="&#x2020;" horiz-adv-x="479" 
d="M216 475l-17 248h86l-18 -250l189 19v-85l-190 15l24 -589h-104l29 589l-192 -16v86z" />
    <glyph glyph-name="daggerdbl" unicode="&#x2021;" horiz-adv-x="479" 
d="M214 496l-17 228h87l-20 -228l180 17v-87l-180 19l11 -163l-11 -173l180 17v-87l-180 19l19 -230h-88l19 229l-179 -18v87l179 -17l-12 167l13 169l-180 -19v87z" />
    <glyph glyph-name="bullet" unicode="&#x2022;" horiz-adv-x="350" 
d="M51 350q0 52 36.5 88t87.5 36t87.5 -36t36.5 -88q0 -51 -36.5 -87t-87.5 -36t-87.5 36t-36.5 87z" />
    <glyph glyph-name="ellipsis" unicode="&#x2026;" horiz-adv-x="854" 
d="M93 0v127h98v-127h-98zM378 0v126h98v-126h-98zM663 0v126h98v-126h-98z" />
    <glyph glyph-name="perthousand" unicode="&#x2030;" horiz-adv-x="1042" 
d="M198 359q-63 0 -102.5 52.5t-39.5 136.5q0 86 39 138.5t103 52.5q62 0 101 -53t39 -136q0 -85 -39 -138t-101 -53zM198 416q30 0 46.5 33.5t16.5 94.5q0 138 -62 138q-31 0 -48.5 -33t-17.5 -92q0 -141 65 -141zM519 -41q-65 0 -104 53t-39 141q0 80 39.5 133t100.5 53
q62 0 102 -54.5t40 -139.5q0 -80 -39.5 -133t-99.5 -53zM516 15q66 0 66 131q0 136 -66 136q-30 0 -47.5 -32t-17.5 -89q0 -146 65 -146zM846 -41q-64 0 -103.5 53t-39.5 140q0 80 39.5 133.5t100.5 53.5q62 0 102 -54.5t40 -139.5q0 -80 -39.5 -133t-99.5 -53zM843 15
q67 0 67 131q0 136 -66 136q-31 0 -48 -32t-17 -89q0 -146 64 -146zM134 -42l394 783h50l-392 -783h-52z" />
    <glyph glyph-name="guilsinglleft" unicode="&#x2039;" horiz-adv-x="323" 
d="M52 277l132 244h87l-132 -243l132 -243h-87z" />
    <glyph glyph-name="guilsinglright" unicode="&#x203a;" horiz-adv-x="323" 
d="M139 521l132 -244l-132 -242h-87l132 243l-132 243h87z" />
    <glyph glyph-name="fraction" unicode="&#x2044;" horiz-adv-x="219" 
d="M-157 -91l480 837h54l-479 -837h-55z" />
    <glyph glyph-name="Euro" unicode="&#x20ac;" horiz-adv-x="563" 
d="M453 308l-13 -62h-253q8 -59 26.5 -100t41 -59t40 -25t33.5 -7q48 0 82.5 32t53.5 74l58 -41q-59 -136 -193 -136q-60 0 -105 25.5t-70 68.5t-38 82.5t-20 85.5h-78l13 62h59v13q0 17 2 47h-72l13 62h66q20 121 81 191t148 70q50 0 89 -19t59.5 -47t30.5 -49.5t13 -38.5
l-64 -27q-12 44 -43 77.5t-81 33.5q-58 0 -95.5 -51.5t-49.5 -139.5h308l-13 -62h-300q0 -5 -0.5 -15t-0.5 -15t0.5 -15t0.5 -15h271z" />
    <glyph glyph-name="afii61289" unicode="&#x2113;" horiz-adv-x="430" 
d="M376 140l35 -33q-58 -119 -165 -119q-75 0 -111.5 49.5t-38.5 129.5v13q-41 -36 -49 -43l-23 46q63 58 72 68v263q0 120 40.5 176t100.5 56q54 0 82 -43.5t28 -114.5q0 -161 -175 -349v-40q1 -75 25.5 -110.5t64.5 -35.5q65 0 114 87zM172 513v-193q125 153 125 270
q0 94 -58 94q-28 0 -47.5 -40.5t-19.5 -130.5z" />
    <glyph glyph-name="trademark" unicode="&#x2122;" horiz-adv-x="1000" 
d="M314 323h-66v339h-129v59h325v-59h-130v-339zM550 323h-61v398h98l100 -318l97 318h96v-398h-61v334l-102 -334h-60l-107 339v-339z" />
    <glyph glyph-name="Omega" unicode="&#x2126;" horiz-adv-x="612" 
d="M164 68v3q-113 123 -113 300q0 141 73 231t185 90q113 0 181.5 -93t68.5 -222q0 -96 -33 -176.5t-81 -129.5v-3h126v-68h-211v50q50 40 84 121t34 188q0 65 -18 123.5t-58 98.5t-95 40q-80 0 -127.5 -74.5t-47.5 -190.5q0 -101 35.5 -185t83.5 -121v-50h-212v68h125z" />
    <glyph glyph-name="estimated" unicode="&#x212e;" horiz-adv-x="852" 
d="M818 328h-635q-6 0 -6 -5v-192q0 -13 9 -22q100 -105 240 -105q75 0 140.5 31.5t112.5 86.5h57q-53 -63 -135 -100t-176 -37q-162 0 -277 103t-115 249q0 147 115 250.5t277 103.5q163 0 278 -103.5t115 -250.5v-9zM674 353v193q0 14 -9 23q-103 101 -239 101
q-138 0 -239 -104q-10 -9 -10 -24v-189q0 -7 6 -7h487q4 0 4 7z" />
    <glyph glyph-name="partialdiff" unicode="&#x2202;" horiz-adv-x="485" 
d="M91 647l-25 63q63 52 148 52q94 0 160 -93.5t66 -273.5q0 -187 -60.5 -296.5t-171.5 -109.5q-81 0 -125.5 65.5t-44.5 158.5q0 113 55.5 183t132.5 70q49 0 84.5 -25.5t50.5 -54.5h1q1 10 1 38q0 115 -45.5 192t-112.5 77q-64 0 -114 -46zM215 59h1q56 0 92.5 72
t45.5 174q-11 35 -41.5 64t-73.5 29q-51 0 -86.5 -55t-35.5 -132q0 -68 26.5 -110t71.5 -42z" />
    <glyph glyph-name="Delta" unicode="&#x2206;" horiz-adv-x="563" 
d="M27 0v53l211 645h92l205 -643v-55h-508zM107 67h345l-115 349q-6 23 -27.5 88.5t-27.5 90.5h-3q-4 -22 -24 -83t-26 -82z" />
    <glyph glyph-name="product" unicode="&#x220f;" horiz-adv-x="616" 
d="M591 606h-91v-700h-79v700h-227v-700h-79v700h-91v76h567v-76z" />
    <glyph glyph-name="summation" unicode="&#x2211;" horiz-adv-x="484" 
d="M464 -94h-443v56l229 332l-219 329v59h419v-71h-313v-3l203 -300l-222 -320v-4h346v-78z" />
    <glyph glyph-name="minus" unicode="&#x2212;" horiz-adv-x="667" 
d="M66 287v77h535v-77h-535z" />
    <glyph glyph-name="uni2215" unicode="&#x2215;" horiz-adv-x="219" 
d="M-157 -91l480 837h54l-479 -837h-55z" />
    <glyph glyph-name="uni2219" unicode="&#x2219;" horiz-adv-x="271" 
d="M87 217v126h97v-126h-97z" />
    <glyph glyph-name="radical" unicode="&#x221a;" horiz-adv-x="511" 
d="M510 814l-195 -957h-67l-137 447l-66 -25l-15 50l131 51l103 -340q14 -65 16 -78h2q3 24 12 79l158 773h58z" />
    <glyph glyph-name="infinity" unicode="&#x221e;" horiz-adv-x="706" 
d="M660 284v-1q0 -66 -42 -107.5t-99 -41.5q-42 0 -79.5 24.5t-85.5 81.5q-44 -52 -82.5 -79t-88.5 -27q-57 0 -97.5 41.5t-40.5 103.5q0 64 41 106t104 42q47 0 86 -27.5t81 -78.5q53 59 79 77q42 29 89 29q59 0 97 -39.5t38 -103.5zM190 183h1q8 0 16.5 1.5t15.5 4
t15.5 7.5t13.5 8t14 10.5t13 11t13 13t11.5 12.5t12 13.5t11.5 12.5q-22 28 -31.5 38.5t-29.5 29.5t-39.5 26.5t-41.5 7.5q-41 0 -65 -29t-24 -72q0 -40 26.5 -67.5t67.5 -27.5zM520 379h-1q-17 0 -33.5 -6.5t-32 -19.5t-26 -22.5t-26 -26.5t-19.5 -22q49 -56 77.5 -77.5
t62.5 -21.5q40 0 63.5 29.5t23.5 66.5q0 46 -24.5 73t-64.5 27z" />
    <glyph glyph-name="integral" unicode="&#x222b;" horiz-adv-x="336" 
d="M315 823l-12 -58q-13 9 -31 9q-28 0 -44 -24q-29 -37 -29 -172q0 -76 6 -239.5t6 -246.5q0 -135 -37 -197q-30 -54 -97 -54q-34 0 -60 14l13 61q20 -10 38 -10q26 0 41 22q28 40 28 163q0 83 -6 250t-6 245q0 155 49 209q34 40 91 40q30 0 50 -12z" />
    <glyph glyph-name="approxequal" unicode="&#x2248;" horiz-adv-x="493" 
d="M422 417l31 -27q-41 -91 -116 -91q-24 0 -44.5 8t-56.5 29q-50 32 -81 32q-27 0 -45.5 -17.5t-38.5 -50.5l-33 26q43 91 123 91q12 0 24 -2.5t23.5 -7t18.5 -8.5t18 -10t14 -8q4 -2 12.5 -7t12 -7.5t11 -6t11.5 -5t10.5 -4t12 -3t11.5 -0.5q25 0 43.5 17t38.5 52z
M422 258l31 -27q-42 -91 -116 -91q-37 0 -101 38q-53 32 -80 32q-28 0 -46.5 -17.5t-38.5 -51.5l-33 26q20 42 52.5 66.5t70.5 24.5q15 0 31.5 -4.5t24.5 -8t24 -12.5t18 -10q3 -2 16 -9.5t17.5 -10t14 -6.5t17.5 -5.5t16 -1.5q25 0 43 16.5t39 51.5z" />
    <glyph glyph-name="notequal" unicode="&#x2260;" horiz-adv-x="493" 
d="M354 479l-39 -86h132v-52h-151l-57 -129h208v-51h-227l-46 -104l-40 17l39 87h-128v51h147l57 129h-204v52h223l45 102z" />
    <glyph glyph-name="lessequal" unicode="&#x2264;" horiz-adv-x="493" 
d="M445 100l-395 208v54l395 208v-62l-343 -171v-2l343 -173v-62zM448 10h-403v53h403v-53z" />
    <glyph glyph-name="greaterequal" unicode="&#x2265;" horiz-adv-x="493" 
d="M51 570l395 -208v-54l-395 -208v62l342 172v2l-342 172v62zM447 10h-401v53h401v-53z" />
    <glyph glyph-name="lozenge" unicode="&#x25ca;" horiz-adv-x="511" 
d="M463 340l-176 -381h-66l-173 381l177 382h65zM390 338l-116 257q-6 14 -17 56h-2q-7 -30 -18 -56l-116 -253l117 -259q11 -27 15 -54h4q9 39 16 53z" />
    </font>
</defs>
</svg>
